SplineFontDB: 3.0
FontName: Z340
FullName: Z340
FamilyName: Z340
Weight: Medium
Copyright: HK
Version: 001.000
ItalicAngle: 0
UnderlinePosition: -150
UnderlineWidth: 50
Ascent: 800
Descent: 200
InvalidEm: 0
sfntRevision: 0x00010000
LayerCount: 2
Layer: 0 1 "Back" 1
Layer: 1 1 "Fore" 0
XUID: [1021 204 -544064099 10647401]
StyleMap: 0x0040
FSType: 0
OS2Version: 1
OS2_WeightWidthSlopeOnly: 0
OS2_UseTypoMetrics: 0
CreationTime: 1280473793
ModificationTime: 1510439261
PfmFamily: 17
TTFWeight: 500
TTFWidth: 5
LineGap: 90
VLineGap: 0
Panose: 2 0 6 3 0 0 0 0 0 0
OS2TypoAscent: 800
OS2TypoAOffset: 0
OS2TypoDescent: -200
OS2TypoDOffset: 0
OS2TypoLinegap: 90
OS2WinAscent: 666
OS2WinAOffset: 0
OS2WinDescent: 32
OS2WinDOffset: 0
HheadAscent: 666
HheadAOffset: 0
HheadDescent: -32
HheadDOffset: 0
OS2SubXSize: 650
OS2SubYSize: 699
OS2SubXOff: 0
OS2SubYOff: 140
OS2SupXSize: 650
OS2SupYSize: 699
OS2SupXOff: 0
OS2SupYOff: 479
OS2StrikeYSize: 49
OS2StrikeYPos: 258
OS2Vendor: '2ttf'
OS2CodePages: 00000001.00000000
OS2UnicodeRanges: 00000001.00000000.00000000.00000000
MarkAttachClasses: 1
DEI: 91125
ShortTable: cvt  2
  33
  633
EndShort
ShortTable: maxp 16
  1
  0
  67
  202
  5
  0
  0
  2
  0
  1
  1
  0
  64
  0
  0
  0
EndShort
LangName: 1033 "" "" "" "HK:Z340"
GaspTable: 1 65535 2 0
Encoding: Custom
UnicodeInterp: none
NameList: AGL For New Fonts
DisplaySize: -48
AntiAlias: 1
FitToEm: 0
WinInfo: 42 21 8
BeginChars: 65539 67

StartChar: .notdef
Encoding: 65536 -1 0
Width: 364
Flags: W
LayerCount: 2
Fore
SplineSet
66 33 m 1,0,-1
 265 33 l 1,1,-1
 265 633 l 1,2,-1
 66 633 l 1,3,-1
 66 33 l 1,0,-1
33 0 m 1,4,-1
 33 666 l 1,5,-1
 298 666 l 1,6,-1
 298 0 l 1,7,-1
 33 0 l 1,4,-1
EndSplineSet
Validated: 1
EndChar

StartChar: numbersign
Encoding: 35 35 4
Width: 688
GlyphClass: 2
Flags: W
LayerCount: 2
Fore
SplineSet
320 135 m 1,0,1
 332 137 332 137 343 133 c 0,2,3
 393 117 393 117 440 151 c 0,4,5
 490 188 490 188 510 256 c 0,6,7
 531 326 531 326 504 384 c 0,8,9
 474 450 474 450 386 479 c 0,10,11
 321 501 321 501 274 466 c 0,12,13
 228 432 228 432 212 362 c 0,14,15
 196 289 196 289 223 227 c 0,16,17
 251 161 251 161 320 135 c 1,0,1
329 263 m 0,18,19
 327 264 327 264 325 265 c 0,20,21
 306 278 306 278 302 299 c 0,22,23
 297 323 297 323 313 342 c 0,24,25
 313 343 313 343 314 344 c 0,26,27
 318 352 318 352 325 358 c 0,28,29
 338 371 338 371 356 373 c 0,30,31
 381 376 381 376 399 357 c 0,32,33
 409 347 409 347 412 333 c 0,34,35
 414 325 414 325 414 317 c 0,36,37
 414 279 414 279 382 262 c 0,38,39
 371 256 371 256 358 255 c 0,40,41
 343 254 343 254 329 263 c 0,18,19
288 40 m 0,42,43
 177 80 177 80 131 187 c 0,44,45
 91 280 91 280 115 384 c 0,46,47
 139 490 139 490 215 547 c 0,48,49
 304 612 304 612 417 574 c 0,50,51
 547 531 547 531 595 425 c 0,52,53
 638 333 638 333 606 227 c 0,54,55
 576 128 576 128 499 71 c 0,56,57
 411 6 411 6 313 38 c 1,58,59
 300 36 300 36 288 40 c 0,42,43
EndSplineSet
Validated: 33
EndChar

StartChar: b
Encoding: 48 98 5
Width: 554
GlyphClass: 2
Flags: W
LayerCount: 2
Fore
SplineSet
371 260 m 1,0,1
 356 257 356 257 331 255 c 0,2,3
 329 255 329 255 326 254 c 0,4,5
 279 249 279 249 259 244 c 0,6,7
 230 236 230 236 212 221 c 0,8,9
 211 221 211 221 211 220 c 0,10,11
 209 215 209 215 209 204 c 0,12,13
 209 198 209 198 209 189 c 0,14,15
 209 181 209 181 209 179 c 0,16,17
 209 144 209 144 225 126 c 0,18,19
 238 110 238 110 268 103 c 128,-1,20
 298 96 298 96 343 97 c 0,21,22
 356 97 356 97 369 99 c 1,23,24
 369 111 369 111 370 126 c 0,25,26
 370 182 370 182 371 260 c 1,0,1
379 527 m 1,27,28
 374 528 374 528 361 528 c 0,29,30
 355 527 355 527 351 527 c 0,31,32
 286 527 286 527 249 495 c 0,33,34
 221 470 221 470 222 437 c 0,35,36
 223 408 223 408 251 390 c 0,37,38
 292 365 292 365 370 378 c 0,39,40
 372 378 372 378 374 378 c 0,41,42
 376 438 376 438 377 483 c 0,43,44
 378 511 378 511 379 527 c 1,27,28
179 319 m 1,45,46
 125 365 125 365 122 434 c 0,47,48
 119 513 119 513 182 569 c 0,49,50
 247 627 247 627 351 627 c 0,51,52
 354 627 354 627 360 628 c 0,53,54
 387 628 387 628 401 626 c 0,55,56
 412 624 412 624 422 620 c 1,57,58
 435 622 435 622 448 618 c 0,59,60
 465 613 465 613 474.5 597.5 c 128,-1,61
 484 582 484 582 482 564 c 1,62,63
 488 546 488 546 479 528 c 1,64,65
 478 508 478 508 477 479 c 0,66,67
 475 406 475 406 472 302 c 0,68,69
 470 198 470 198 470 125 c 0,70,71
 469 103 469 103 469 86 c 1,72,73
 478 75 478 75 480 62 c 0,74,75
 483 38 483 38 467 21 c 1,76,77
 459 3 459 3 441 -5 c 0,78,79
 415 -16 415 -16 392 0 c 1,80,81
 368 -2 368 -2 346 -3 c 0,82,83
 287 -5 287 -5 244 6 c 0,84,85
 184 21 184 21 149 60 c 0,86,87
 109 106 109 106 109 179 c 0,88,89
 109 182 109 182 109 188 c 0,90,91
 109 200 109 200 109 206 c 0,92,93
 110 231 110 231 115 249 c 0,94,95
 125 279 125 279 147 298 c 0,96,97
 162 310 162 310 179 319 c 1,45,46
EndSplineSet
Validated: 33
EndChar

StartChar: t
Encoding: 49 116 6
Width: 739
GlyphClass: 2
Flags: W
LayerCount: 2
Fore
SplineSet
63 114 m 0,0,1
 124 98 124 98 202 95 c 0,2,3
 238 94 238 94 279 94 c 1,4,5
 277 136 277 136 268 230 c 0,6,7
 266 256 266 256 264 269 c 0,8,9
 256 357 256 357 257 415 c 0,10,11
 257 497 257 497 272 566 c 0,12,13
 277 586 277 586 294 597 c 128,-1,14
 311 608 311 608 331.5 603.5 c 128,-1,15
 352 599 352 599 363 581.5 c 128,-1,16
 374 564 374 564 370 544 c 0,17,18
 357 486 357 486 357 415 c 0,19,20
 356 362 356 362 364 278 c 0,21,22
 365 265 365 265 368 239 c 0,23,24
 377 143 377 143 378 99 c 1,25,26
 397 100 397 100 434 102 c 0,27,28
 560 111 560 111 620 111 c 0,29,30
 641 111 641 111 655.5 96.5 c 128,-1,31
 670 82 670 82 670 61 c 128,-1,32
 670 40 670 40 655.5 25.5 c 128,-1,33
 641 11 641 11 620 11 c 0,34,35
 564 11 564 11 441 3 c 0,36,37
 388 -1 388 -1 359 -3 c 0,38,39
 265 -8 265 -8 198 -5 c 0,40,41
 110 -1 110 -1 39 16 c 0,42,43
 19 22 19 22 8 39.5 c 128,-1,44
 -3 57 -3 57 2 77 c 128,-1,45
 7 97 7 97 25 108 c 128,-1,46
 43 119 43 119 63 114 c 0,0,1
EndSplineSet
Validated: 33
EndChar

StartChar: j
Encoding: 50 106 7
Width: 659
GlyphClass: 2
Flags: W
LayerCount: 2
Fore
SplineSet
337 483 m 0,0,1
 336 465 336 465 334 445 c 0,2,3
 332 415 332 415 324 361 c 0,4,5
 314 281 314 281 313 248 c 0,6,7
 311 198 311 198 322 169 c 0,8,9
 332 142 332 142 358 129 c 0,10,11
 395 109 395 109 468 109 c 0,12,13
 488 109 488 109 503 94.5 c 128,-1,14
 518 80 518 80 518 59 c 128,-1,15
 518 38 518 38 503 23.5 c 128,-1,16
 488 9 488 9 468 9 c 0,17,18
 371 9 371 9 312 40 c 0,19,20
 252 71 252 71 228 134 c 0,21,22
 210 181 210 181 213 252 c 0,23,24
 214 289 214 289 225 374 c 0,25,26
 232 426 232 426 235 454 c 0,27,28
 236 472 236 472 237 487 c 0,29,30
 237 491 237 491 238 495 c 1,31,32
 196 497 196 497 107 500 c 0,33,34
 98 501 98 501 91 501 c 0,35,36
 71 502 71 502 57 517 c 128,-1,37
 43 532 43 532 43.5 552.5 c 128,-1,38
 44 573 44 573 59.5 587.5 c 128,-1,39
 75 602 75 602 95 601 c 0,40,41
 98 601 98 601 111 600 c 0,42,43
 241 595 241 595 305 593 c 0,44,45
 437 589 437 589 539 589 c 0,46,47
 560 589 560 589 574.5 574.5 c 128,-1,48
 589 560 589 560 589 539 c 128,-1,49
 589 518 589 518 574.5 503.5 c 128,-1,50
 560 489 560 489 539 489 c 0,51,52
 448 489 448 489 336 492 c 1,53,54
 337 488 337 488 337 483 c 0,0,1
EndSplineSet
Validated: 33
EndChar

StartChar: &
Encoding: 51 38 8
Width: 492
GlyphClass: 2
Flags: W
LayerCount: 2
Fore
SplineSet
119 589 m 0,0,1
 120 589 120 589 122 589 c 0,2,3
 178 587 178 587 205 584 c 0,4,5
 289 576 289 576 343 549 c 0,6,7
 377 532 377 532 397 495 c 0,8,9
 409 473 409 473 417 439 c 0,10,11
 434 369 434 369 404 319 c 0,12,13
 379 276 379 276 324 254 c 0,14,15
 285 238 285 238 230 233 c 0,16,17
 197 230 197 230 147 230 c 0,18,19
 140 230 140 230 134 232 c 1,20,21
 132 208 132 208 132 185 c 0,22,23
 131 120 131 120 139 71 c 0,24,25
 143 50 143 50 131 33.5 c 128,-1,26
 119 17 119 17 98.5 13.5 c 128,-1,27
 78 10 78 10 61 22 c 128,-1,28
 44 34 44 34 41 54 c 0,29,30
 31 113 31 113 32 186 c 0,31,32
 33 229 33 229 39 315 c 0,33,34
 41 339 41 339 42 352 c 0,35,36
 49 457 49 457 43 519 c 0,37,38
 41 538 41 538 51.5 553 c 128,-1,39
 62 568 62 568 79 572 c 1,40,41
 95 590 95 590 119 589 c 0,0,1
EndSplineSet
Validated: 545
EndChar

StartChar: p
Encoding: 52 112 9
Width: 661
GlyphClass: 2
Flags: W
LayerCount: 2
Fore
SplineSet
294 37 m 0,0,1
 210 37 210 37 143 111 c 0,2,3
 70 192 70 192 58 305 c 0,4,5
 45 433 45 433 123 514 c 0,6,7
 213 605 213 605 389 591 c 0,8,9
 511 581 511 581 563 478 c 0,10,11
 606 394 606 394 585 282 c 0,12,13
 564 174 564 174 496 103 c 0,14,15
 415 18 415 18 309 33 c 0,16,17
 301 34 301 34 294 37 c 0,0,1
362 481 m 0,18,19
 353 448 353 448 352 403 c 0,20,21
 352 374 352 374 355 313 c 2,22,-1
 355 312 l 2,23,24
 357 259 357 259 357 232 c 0,25,26
 357 185 357 185 351 148 c 0,27,28
 350 141 350 141 347 135 c 0,29,30
 349 133 349 133 351 132 c 0,31,32
 391 137 391 137 424 172 c 0,33,34
 472 221 472 221 487 300 c 128,-1,35
 502 379 502 379 474 433 c 0,36,37
 447 485 447 485 381 491 c 0,38,39
 372 492 372 492 364 492 c 1,40,41
 364 486 364 486 362 481 c 0,18,19
EndSplineSet
Validated: 33
EndChar

StartChar: slash
Encoding: 53 47 10
Width: 599
GlyphClass: 2
Flags: W
LayerCount: 2
Fore
SplineSet
40 81 m 0,0,1
 66 112 66 112 98 152 c 0,2,3
 115 174 115 174 141 206 c 0,4,5
 145 211 145 211 152 219 c 0,6,7
 155 223 155 223 163 233 c 0,8,9
 176 249 176 249 185 260 c 0,10,11
 261 355 261 355 310 413 c 0,12,13
 381 496 381 496 444 559 c 0,14,15
 458 573 458 573 479 573 c 128,-1,16
 500 573 500 573 514.5 558.5 c 128,-1,17
 529 544 529 544 529 523.5 c 128,-1,18
 529 503 529 503 515 488 c 0,19,20
 455 428 455 428 386 348 c 0,21,22
 338 291 338 291 263 197 c 0,23,24
 254 187 254 187 241 170 c 0,25,26
 240 169 240 169 237 165.5 c 128,-1,27
 234 162 234 162 232 160 c 2,28,-1
 230 157 l 2,29,30
 224 149 224 149 219 143 c 0,31,32
 193 111 193 111 176 89 c 0,33,34
 143 49 143 49 117 17 c 0,35,36
 103 1 103 1 82.5 -1 c 128,-1,37
 62 -3 62 -3 46 10.5 c 128,-1,38
 30 24 30 24 28.5 44.5 c 128,-1,39
 27 65 27 65 40 81 c 0,0,1
EndSplineSet
Validated: 33
EndChar

StartChar: hyphen
Encoding: 54 45 11
Width: 653
GlyphClass: 2
Flags: W
LayerCount: 2
Fore
SplineSet
92 393 m 0,0,1
 136 387 136 387 194 388 c 0,2,3
 229 389 229 389 301 394 c 0,4,5
 307 394 307 394 310 394 c 0,6,7
 383 399 383 399 423 400 c 0,8,9
 488 400 488 400 540 393 c 0,10,11
 561 390 561 390 573.5 373.5 c 128,-1,12
 586 357 586 357 583 336.5 c 128,-1,13
 580 316 580 316 563.5 303.5 c 128,-1,14
 547 291 547 291 526 294 c 0,15,16
 482 300 482 300 425 300 c 0,17,18
 387 299 387 299 317 295 c 0,19,20
 314 294 314 294 308 294 c 0,21,22
 233 289 233 289 196 288 c 0,23,24
 131 287 131 287 80 294 c 0,25,26
 59 296 59 296 46.5 312.5 c 128,-1,27
 34 329 34 329 36.5 349.5 c 128,-1,28
 39 370 39 370 55 383 c 128,-1,29
 71 396 71 396 92 393 c 0,0,1
EndSplineSet
EndChar

StartChar: five
Encoding: 55 53 12
Width: 642
GlyphClass: 2
Flags: W
LayerCount: 2
Fore
SplineSet
289 47 m 0,0,1
 182 52 182 52 116 140 c 0,2,3
 56 220 56 220 62 322 c 0,4,5
 68 432 68 432 151 498 c 0,6,7
 242 570 242 570 393 555 c 0,8,9
 485 546 485 546 536 459 c 0,10,11
 579 384 579 384 571 289 c 0,12,13
 562 188 562 188 497 122 c 0,14,15
 422 46 422 46 299 46 c 0,16,17
 294 46 294 46 289 47 c 0,0,1
EndSplineSet
Validated: 33
EndChar

StartChar: semicolon
Encoding: 56 59 13
Width: 693
GlyphClass: 2
Flags: W
LayerCount: 2
Fore
SplineSet
394 461 m 0,0,1
 388 401 388 401 388 342 c 0,2,3
 388 258 388 258 400 200 c 0,4,5
 413 138 413 138 436 120 c 0,6,7
 444 114 444 114 453 115 c 0,8,9
 471 115 471 115 497 130 c 0,10,11
 515 140 515 140 535 134 c 128,-1,12
 555 128 555 128 565 110 c 128,-1,13
 575 92 575 92 569.5 72 c 128,-1,14
 564 52 564 52 546 42 c 0,15,16
 498 15 498 15 455 15 c 0,17,18
 410 14 410 14 374 41 c 0,19,20
 349 62 349 62 331 95 c 1,21,22
 318 70 318 70 298 54 c 0,23,24
 262 23 262 23 212 23 c 0,25,26
 176 23 176 23 145 35 c 0,27,28
 104 49 104 49 80 79 c 0,29,30
 67 95 67 95 69.5 115.5 c 128,-1,31
 72 136 72 136 88 149 c 128,-1,32
 104 162 104 162 124.5 159.5 c 128,-1,33
 145 157 145 157 158 141 c 0,34,35
 173 123 173 123 212 123 c 0,36,37
 226 123 226 123 233 130 c 0,38,39
 243 138 243 138 250 158 c 0,40,41
 266 201 266 201 263 289 c 0,42,43
 262 325 262 325 257 382 c 0,44,45
 257 384 257 384 256.5 388.5 c 128,-1,46
 256 393 256 393 256 397.5 c 128,-1,47
 256 402 256 402 256 406 c 2,48,-1
 255 409 l 2,49,50
 254 424 254 424 253 434 c 0,51,52
 251 462 251 462 251 478 c 0,53,54
 251 481 251 481 251 484 c 0,55,56
 150 486 150 486 78 473 c 0,57,58
 57 469 57 469 40 480.5 c 128,-1,59
 23 492 23 492 19 512.5 c 128,-1,60
 15 533 15 533 27 550 c 128,-1,61
 39 567 39 567 59 571 c 0,62,63
 122 583 122 583 201 584 c 0,64,65
 258 585 258 585 342 580 c 0,66,67
 363 579 363 579 402 576 c 0,68,69
 519 567 519 567 573 567 c 0,70,71
 594 567 594 567 608.5 552.5 c 128,-1,72
 623 538 623 538 623 517.5 c 128,-1,73
 623 497 623 497 608.5 482 c 128,-1,74
 594 467 594 467 573 467 c 0,75,76
 515 467 515 467 395 476 c 0,77,78
 394 476 394 476 393 476 c 1,79,80
 395 469 395 469 394 461 c 0,0,1
114 315 m 0,81,82
 114 318 114 318 115 320 c 2,83,-1
 115 321 l 2,84,85
 114 323 114 323 114 325 c 0,86,87
 114 330 114 330 115 335 c 0,88,89
 120 362 120 362 145 373 c 0,90,91
 153 376 153 376 161 377 c 0,92,93
 165 377 165 377 169 377 c 0,94,95
 187 376 187 376 201 363.5 c 128,-1,96
 215 351 215 351 217 333 c 0,97,98
 219 320 219 320 214 308 c 0,99,100
 213 304 213 304 213 300 c 0,101,102
 209 279 209 279 192.5 267 c 128,-1,103
 176 255 176 255 155.5 258 c 128,-1,104
 135 261 135 261 123 278 c 128,-1,105
 111 295 111 295 114 315 c 0,81,82
EndSplineSet
Validated: 33
EndChar

StartChar: at
Encoding: 57 64 14
Width: 677
GlyphClass: 2
Flags: W
LayerCount: 2
Fore
SplineSet
478 491 m 1,0,1
 453 491 453 491 415 491 c 0,2,3
 384 491 384 491 341 491 c 0,4,5
 336 491 336 491 329 491 c 2,6,-1
 328 491 l 1,7,-1
 327 491 l 1,8,-1
 326 491 l 1,9,-1
 325 491 l 1,10,-1
 323 491 l 1,11,-1
 322 491 l 1,12,-1
 321 491 l 1,13,-1
 320 491 l 1,14,-1
 319 491 l 2,15,16
 308 491 308 491 305 491 c 0,17,18
 288 491 288 491 241 496 c 0,19,20
 222 498 222 498 210 499 c 0,21,22
 181 501 181 501 162 500 c 0,23,24
 153 499 153 499 147 498 c 0,25,26
 144 497 144 497 142 496 c 0,27,28
 141 496 141 496 140 495 c 0,29,30
 133 491 133 491 125 490 c 1,31,32
 117 441 117 441 118 347 c 0,33,34
 118 338 118 338 118 322 c 0,35,36
 118 232 118 232 115 189 c 0,37,38
 114 181 114 181 112 167 c 0,39,40
 111 165 111 165 110 160 c 128,-1,41
 109 155 109 155 108 150 c 2,42,-1
 107 145 l 2,43,44
 105 135 105 135 104 128 c 0,45,46
 104 125 104 125 104 123 c 2,47,-1
 105 123 l 2,48,49
 116 123 116 123 156 122 c 0,50,51
 201 121 201 121 241 120 c 0,52,53
 291 119 291 119 329 118 c 0,54,55
 424 116 424 116 478 117 c 0,56,57
 487 117 487 117 495 117 c 1,58,59
 480 199 480 199 478 320 c 0,60,61
 477 359 477 359 478 436 c 0,62,63
 478 474 478 474 478 491 c 1,0,1
86 579 m 0,64,65
 88 581 88 581 92 583 c 0,66,67
 117 597 117 597 156 600 c 0,68,69
 181 601 181 601 218 598 c 0,70,71
 231 597 231 597 251 595 c 0,72,73
 294 591 294 591 305 591 c 0,74,75
 308 591 308 591 318 591 c 0,76,77
 319 591 319 591 321.5 591 c 128,-1,78
 324 591 324 591 326 591 c 2,79,-1
 328 591 l 2,80,81
 335 591 335 591 340 591 c 0,82,83
 384 591 384 591 415 591 c 0,84,85
 463 591 463 591 492 590 c 0,86,87
 510 589 510 589 521 588 c 0,88,89
 529 587 529 587 534 586 c 128,-1,90
 539 585 539 585 544 583 c 0,91,92
 555 579 555 579 563 571 c 0,93,94
 573 561 573 561 577 547 c 0,95,96
 579 541 579 541 579.5 534 c 128,-1,97
 580 527 580 527 579 518 c 0,98,99
 579 514 579 514 579 509 c 2,100,-1
 578 507 l 1,101,-1
 578 505 l 2,102,103
 578 486 578 486 578 435 c 0,104,105
 577 360 577 360 578 321 c 0,106,107
 580 200 580 200 596 123 c 1,108,-1
 597 121 l 1,109,-1
 597 120 l 2,110,111
 598 119 598 119 598 118 c 0,112,113
 599 116 599 116 600 114 c 0,114,115
 601 110 601 110 602 107 c 0,116,117
 606 95 606 95 607 86 c 0,118,119
 608 75 608 75 606 66 c 0,120,121
 602 46 602 46 586 33 c 0,122,123
 578 27 578 27 568 24 c 0,124,125
 563 23 563 23 556 21 c 0,126,127
 548 20 548 20 535 19 c 0,128,129
 514 17 514 17 479 17 c 0,130,131
 424 16 424 16 327 18 c 0,132,133
 288 19 288 19 238 20 c 0,134,135
 229 20 229 20 207.5 20.5 c 128,-1,136
 186 21 186 21 169 22 c 2,137,-1
 153 22 l 2,138,139
 115 23 115 23 106 23 c 0,140,141
 105 23 105 23 104 23 c 128,-1,142
 103 23 103 23 100.5 23 c 128,-1,143
 98 23 98 23 97 23 c 0,144,145
 88 22 88 22 81 22 c 0,146,147
 67 22 67 22 56 24 c 0,148,149
 46 25 46 25 37 29 c 0,150,151
 20 37 20 37 11 54 c 0,152,153
 0 73 0 73 1 103 c 0,154,155
 2 120 2 120 6 144 c 0,156,157
 7 152 7 152 9 163 c 0,158,159
 9 164 9 164 10 169 c 128,-1,160
 11 174 11 174 12 179 c 128,-1,161
 13 184 13 184 13 186 c 0,162,163
 15 194 15 194 15 197 c 0,164,165
 18 236 18 236 18 321 c 0,166,167
 18 338 18 338 18 346 c 0,168,169
 17 406 17 406 20 443 c 0,170,171
 23 498 23 498 33 541 c 0,172,173
 37 559 37 559 52 569.5 c 128,-1,174
 67 580 67 580 86 579 c 0,64,65
240 324 m 0,175,176
 244 337 244 337 254 350 c 0,177,178
 267 367 267 367 287.5 369 c 128,-1,179
 308 371 308 371 325 358 c 0,180,181
 330 354 330 354 334 348 c 0,182,183
 338 345 338 345 342 341 c 0,184,185
 362 319 362 319 352 291 c 0,186,187
 348 279 348 279 338 270 c 0,188,189
 333 266 333 266 327 263 c 0,190,191
 324 261 324 261 322 260 c 0,192,193
 316 258 316 258 309 257 c 0,194,195
 305 256 305 256 301 256 c 2,196,-1
 300 255 l 1,197,198
 280 250 280 250 261.5 260 c 128,-1,199
 243 270 243 270 238 290 c 0,200,201
 233 307 233 307 240 324 c 0,175,176
EndSplineSet
Validated: 33
EndChar

StartChar: A
Encoding: 65 65 15
Width: 630
GlyphClass: 2
Flags: W
LayerCount: 2
Fore
SplineSet
377 269 m 1,0,1
 372 286 372 286 365 311 c 0,2,3
 365 312 365 312 364 313 c 0,4,5
 346 379 346 379 336 411 c 0,6,7
 333 419 333 419 331 427 c 1,8,9
 324 415 324 415 317 402 c 0,10,11
 297 365 297 365 260 292 c 0,12,13
 255 283 255 283 253 280 c 0,14,15
 252 278 252 278 251 276 c 1,16,17
 312 266 312 266 377 269 c 1,0,1
395 541 m 0,18,19
 414 497 414 497 431 440 c 0,20,21
 442 407 442 407 461 340 c 0,22,23
 461 339 461 339 461 338 c 0,24,25
 486 248 486 248 501 204 c 0,26,27
 526 134 526 134 554 84 c 0,28,29
 565 66 565 66 559.5 46 c 128,-1,30
 554 26 554 26 536 15.5 c 128,-1,31
 518 5 518 5 498 10.5 c 128,-1,32
 478 16 478 16 467 34 c 0,33,34
 434 93 434 93 407 171 c 1,35,36
 309 163 309 163 217 180 c 0,37,38
 210 181 210 181 204 185 c 1,39,40
 198 174 198 174 193 164 c 0,41,42
 157 99 157 99 123 49 c 0,43,44
 111 32 111 32 91 28.5 c 128,-1,45
 71 25 71 25 53.5 36.5 c 128,-1,46
 36 48 36 48 32.5 68.5 c 128,-1,47
 29 89 29 89 40 106 c 0,48,49
 72 152 72 152 105 212 c 0,50,51
 127 252 127 252 164 325 c 0,52,53
 166 328 166 328 170 337 c 0,54,55
 208 412 208 412 229 450 c 0,56,57
 264 513 264 513 296 561 c 0,58,59
 307 578 307 578 327.5 582 c 128,-1,60
 348 586 348 586 365 575 c 0,61,62
 373 570 373 570 378 562 c 0,63,64
 390 554 390 554 395 541 c 0,18,19
EndSplineSet
Validated: 33
EndChar

StartChar: B
Encoding: 66 66 16
Width: 592
GlyphClass: 2
Flags: W
LayerCount: 2
Fore
SplineSet
310 244 m 0,0,1
 276 242 276 242 238 246 c 1,2,3
 237 227 237 227 237 190 c 0,4,5
 235 128 235 128 235 100 c 1,6,7
 240 101 240 101 245 101 c 0,8,9
 246 101 246 101 252.5 101.5 c 128,-1,10
 259 102 259 102 260 102 c 0,11,12
 324 107 324 107 365 121 c 0,13,14
 396 131 396 131 409 145 c 0,15,16
 415 151 415 151 415 157 c 0,17,18
 415 165 415 165 408 177 c 0,19,20
 385 214 385 214 331 236 c 0,21,22
 321 241 321 241 310 244 c 0,0,1
320 344 m 1,23,24
 369 348 369 348 398 365 c 0,25,26
 415 375 415 375 420 387 c 0,27,28
 424 395 424 395 421 405 c 0,29,30
 417 421 417 421 399 436 c 0,31,32
 377 457 377 457 339 471 c 0,33,34
 292 488 292 488 231 493 c 1,35,36
 237 430 237 430 238 349 c 1,37,38
 277 354 277 354 320 344 c 1,23,24
81 588 m 0,39,40
 254 610 254 610 374 564 c 0,41,42
 430 543 430 543 467 509.5 c 128,-1,43
 504 476 504 476 517 434 c 0,44,45
 531 389 531 389 512.5 347.5 c 128,-1,46
 494 306 494 306 450 279 c 1,47,48
 476 256 476 256 493 230 c 0,49,50
 516 193 516 193 515 154 c 0,51,52
 514 110 514 110 481 75 c 0,53,54
 422 14 422 14 268 3 c 0,55,56
 266 3 266 3 259.5 2.5 c 128,-1,57
 253 2 253 2 252 1 c 0,58,59
 207 -2 207 -2 178 -1 c 0,60,61
 97 0 97 0 51 31 c 0,62,63
 34 42 34 42 30 62.5 c 128,-1,64
 26 83 26 83 37.5 100 c 128,-1,65
 49 117 49 117 69.5 121.5 c 128,-1,66
 90 126 90 126 107 114 c 0,67,68
 117 107 117 107 135 103 c 1,69,70
 135 131 135 131 137 191 c 0,71,72
 138 255 138 255 138 288 c 0,73,74
 139 411 139 411 130 492 c 1,75,76
 112 491 112 491 94 489 c 0,77,78
 73 486 73 486 56.5 499 c 128,-1,79
 40 512 40 512 37.5 532.5 c 128,-1,80
 35 553 35 553 48 569 c 128,-1,81
 61 585 61 585 81 588 c 0,39,40
EndSplineSet
Validated: 33
EndChar

StartChar: C
Encoding: 67 67 17
Width: 574
GlyphClass: 2
Flags: W
LayerCount: 2
Fore
SplineSet
431 472 m 0,0,1
 356 511 356 511 276 476 c 0,2,3
 240 460 240 460 209.5 431.5 c 128,-1,4
 179 403 179 403 160 368 c 0,5,6
 121 297 121 297 145 243 c 0,7,8
 156 216 156 216 185 197 c 0,9,10
 221 174 221 174 279 164 c 0,11,12
 332 156 332 156 362 158 c 0,13,14
 399 160 399 160 420 177 c 0,15,16
 436 189 436 189 456.5 187 c 128,-1,17
 477 185 477 185 490 169 c 128,-1,18
 503 153 503 153 500.5 132 c 128,-1,19
 498 111 498 111 482 98 c 0,20,21
 437 62 437 62 368 58 c 0,22,23
 327 56 327 56 264 66 c 0,24,25
 102 91 102 91 53 203 c 0,26,27
 32 253 32 253 37.5 307.5 c 128,-1,28
 43 362 43 362 72 415 c 0,29,30
 99 465 99 465 142 505 c 128,-1,31
 185 545 185 545 236 568 c 0,32,33
 360 622 360 622 477 561 c 0,34,35
 496 552 496 552 502 532 c 128,-1,36
 508 512 508 512 498.5 493.5 c 128,-1,37
 489 475 489 475 469.5 469 c 128,-1,38
 450 463 450 463 431 472 c 0,0,1
EndSplineSet
Validated: 33
EndChar

StartChar: D
Encoding: 68 68 18
Width: 546
GlyphClass: 2
Flags: W
LayerCount: 2
Fore
SplineSet
203 99 m 1,0,1
 246 100 246 100 281 121 c 0,2,3
 342 157 342 157 366 236 c 0,4,5
 389 314 389 314 362 383 c 0,6,7
 334 455 334 455 261 479 c 0,8,9
 239 487 239 487 192 482 c 1,10,11
 178 261 178 261 203 99 c 1,0,1
111 577 m 0,12,13
 128 576 128 576 169 580 c 0,14,15
 175 581 175 581 178 581 c 0,16,17
 211 584 211 584 231 584 c 0,18,19
 265 583 265 583 292 574 c 0,20,21
 350 555 350 555 391.5 515 c 128,-1,22
 433 475 433 475 455 420 c 0,23,24
 495 318 495 318 461 207 c 0,25,26
 427 91 427 91 332 35 c 0,27,28
 225 -28 225 -28 87 18 c 0,29,30
 67 24 67 24 58 42.5 c 128,-1,31
 49 61 49 61 55 81 c 0,32,33
 60 96 60 96 72.5 105 c 128,-1,34
 85 114 85 114 100 115 c 1,35,36
 80 275 80 275 92 480 c 1,37,38
 75 485 75 485 65 499.5 c 128,-1,39
 55 514 55 514 57 532 c 0,40,41
 59 552 59 552 74.5 565.5 c 128,-1,42
 90 579 90 579 111 577 c 0,12,13
EndSplineSet
Validated: 33
EndChar

StartChar: E
Encoding: 69 69 19
Width: 637
GlyphClass: 2
Flags: W
LayerCount: 2
Fore
SplineSet
479 487 m 1,0,1
 426 504 426 504 319 500 c 0,2,3
 276 498 276 498 210 492 c 0,4,5
 208 491 208 491 192 490 c 1,6,7
 188 461 188 461 186 427 c 0,8,9
 185 395 185 395 184 342 c 1,10,11
 217 331 217 331 285 339 c 0,12,13
 294 340 294 340 312 343 c 0,14,15
 373 351 373 351 402 351 c 0,16,17
 423 351 423 351 437.5 336.5 c 128,-1,18
 452 322 452 322 452 301 c 128,-1,19
 452 280 452 280 437.5 265.5 c 128,-1,20
 423 251 423 251 402 251 c 0,21,22
 380 251 380 251 326 243 c 0,23,24
 307 241 307 241 297 240 c 0,25,26
 247 234 247 234 212 236 c 0,27,28
 196 237 196 237 182 239 c 1,29,30
 182 234 182 234 181 229 c 0,31,32
 181 222 181 222 180.5 215 c 128,-1,33
 180 208 180 208 178 191 c 2,34,-1
 177 184 l 2,35,36
 176 178 176 178 175 171 c 128,-1,37
 174 164 174 164 173 161 c 0,38,39
 171 147 171 147 170 137 c 0,40,41
 168 119 168 119 167 107 c 1,42,43
 178 106 178 106 192 105 c 0,44,45
 237 102 237 102 314 103 c 0,46,47
 354 104 354 104 409 105 c 0,48,49
 415 105 415 105 437.5 106 c 128,-1,50
 460 107 460 107 463 107 c 0,51,52
 490 108 490 108 500 108 c 0,53,54
 521 108 521 108 535.5 93 c 128,-1,55
 550 78 550 78 550 57.5 c 128,-1,56
 550 37 550 37 535.5 22 c 128,-1,57
 521 7 521 7 500 7 c 0,58,59
 491 7 491 7 466 7 c 0,60,61
 463 7 463 7 440.5 6 c 128,-1,62
 418 5 418 5 411 5 c 0,63,64
 356 4 356 4 316 3 c 0,65,66
 235 2 235 2 187 5 c 0,67,68
 156 7 156 7 136 10 c 0,69,70
 123 12 123 12 114 16 c 0,71,72
 96 22 96 22 86 34 c 0,73,74
 73 48 73 48 69 69 c 0,75,76
 67 81 67 81 67 96 c 0,77,78
 67 117 67 117 71 149 c 0,79,80
 72 161 72 161 74 176 c 0,81,82
 75 178 75 178 75.5 183.5 c 128,-1,83
 76 189 76 189 77 193.5 c 128,-1,84
 78 198 78 198 78 202 c 2,85,-1
 79 206 l 2,86,87
 81 218 81 218 81 220 c 0,88,89
 81 227 81 227 82 233 c 0,90,91
 83 263 83 263 84 324 c 0,92,93
 85 396 85 396 87 433 c 0,94,95
 90 494 90 494 99 544 c 0,96,97
 100 549 100 549 102 555 c 0,98,99
 106 565 106 565 114.5 572.5 c 128,-1,100
 123 580 123 580 133 584 c 0,101,102
 139 585 139 585 145 586 c 0,103,104
 152 586 152 586 176 588.5 c 128,-1,105
 200 591 200 591 201 591 c 0,106,107
 269 598 269 598 315 600 c 0,108,109
 441 605 441 605 511 582 c 0,110,111
 517 580 517 580 520 579 c 0,112,113
 535 574 535 574 545 566 c 0,114,115
 572 544 572 544 567 510 c 0,116,117
 563 490 563 490 546.5 478 c 128,-1,118
 530 466 530 466 509 469 c 0,119,120
 491 472 491 472 479 487 c 1,0,1
EndSplineSet
Validated: 33
EndChar

StartChar: F
Encoding: 70 70 20
Width: 601
GlyphClass: 2
Flags: W
LayerCount: 2
Fore
SplineSet
112 587 m 0,0,1
 188 576 188 576 308 578 c 0,2,3
 331 578 331 578 377 579 c 0,4,5
 447 581 447 581 482 581 c 0,6,7
 502 581 502 581 517 566.5 c 128,-1,8
 532 552 532 552 532 531 c 128,-1,9
 532 510 532 510 517 495.5 c 128,-1,10
 502 481 502 481 482 481 c 0,11,12
 448 481 448 481 379 479 c 0,13,14
 333 478 333 478 309 478 c 0,15,16
 226 477 226 477 168 481 c 1,17,18
 176 418 176 418 179 349 c 1,19,20
 210 349 210 349 276 349 c 0,21,22
 357 348 357 348 397 348 c 0,23,24
 417 348 417 348 432 333.5 c 128,-1,25
 447 319 447 319 447 298.5 c 128,-1,26
 447 278 447 278 432 263 c 128,-1,27
 417 248 417 248 397 248 c 0,28,29
 356 248 356 248 276 249 c 0,30,31
 210 249 210 249 180 249 c 1,32,33
 178 148 178 148 163 63 c 0,34,35
 160 42 160 42 143 30 c 128,-1,36
 126 18 126 18 106 21.5 c 128,-1,37
 86 25 86 25 73.5 42 c 128,-1,38
 61 59 61 59 65 79 c 0,39,40
 81 177 81 177 80.5 295 c 128,-1,41
 80 413 80 413 62 512 c 1,42,43
 53 527 53 527 56 545 c 0,44,45
 58 565 58 565 75 577.5 c 128,-1,46
 92 590 92 590 112 587 c 0,0,1
EndSplineSet
Validated: 33
EndChar

StartChar: G
Encoding: 71 71 21
Width: 593
GlyphClass: 2
Flags: W
LayerCount: 2
Fore
SplineSet
176 206 m 1,0,1
 189 144 189 144 236 119 c 0,2,3
 298 86 298 86 351 107 c 0,4,5
 397 125 397 125 417 169 c 0,6,7
 431 200 431 200 417 215 c 0,8,9
 409 223 409 223 390 226 c 0,10,11
 361 232 361 232 316 223 c 0,12,13
 300 220 300 220 262 220 c 2,14,-1
 248 220 l 2,15,16
 227 219 227 219 217 218 c 0,17,18
 216 218 216 218 214 218 c 2,19,-1
 213 217 l 2,20,21
 197 204 197 204 176 206 c 1,0,1
403 489 m 0,22,23
 335 507 335 507 277 467 c 0,24,25
 221 428 221 428 192 352 c 0,26,27
 184 332 184 332 179 311 c 1,28,29
 189 314 189 314 201 316 c 0,30,31
 219 319 219 319 247 320 c 2,32,-1
 263 320 l 2,33,34
 290 320 290 320 296 321 c 0,35,36
 429 347 429 347 490 283 c 0,37,38
 518 253 518 253 522.5 211 c 128,-1,39
 527 169 527 169 508 128 c 0,40,41
 491 90 491 90 459.5 60 c 128,-1,42
 428 30 428 30 388 14 c 0,43,44
 291 -24 291 -24 189 31 c 0,45,46
 98 80 98 80 77 192 c 0,47,48
 59 287 59 287 99 389 c 0,49,50
 139 493 139 493 220 549 c 0,51,52
 315 615 315 615 428 586 c 0,53,54
 448 581 448 581 458.5 563 c 128,-1,55
 469 545 469 545 464 525 c 128,-1,56
 459 505 459 505 441 494.5 c 128,-1,57
 423 484 423 484 403 489 c 0,22,23
EndSplineSet
Validated: 33
EndChar

StartChar: H
Encoding: 72 72 22
Width: 581
GlyphClass: 2
Flags: W
LayerCount: 2
Fore
SplineSet
473 570 m 0,0,1
 485 501 485 501 491 417 c 0,2,3
 495 364 495 364 499 259 c 0,4,5
 505 119 505 119 511 50 c 0,6,7
 513 29 513 29 500 13 c 128,-1,8
 487 -3 487 -3 466.5 -5 c 128,-1,9
 446 -7 446 -7 430 6 c 128,-1,10
 414 19 414 19 412 40 c 0,11,12
 405 112 405 112 399 249 c 1,13,14
 313 248 313 248 179 243 c 1,15,16
 184 125 184 125 193 52 c 0,17,18
 196 31 196 31 183 15 c 128,-1,19
 170 -1 170 -1 149.5 -3.5 c 128,-1,20
 129 -6 129 -6 112.5 6.5 c 128,-1,21
 96 19 96 19 94 40 c 0,22,23
 82 136 82 136 77 282 c 0,24,25
 77 285 77 285 77 289 c 128,-1,26
 77 293 77 293 77 297 c 0,27,28
 77 303 77 303 77 308 c 0,29,30
 73 502 73 502 93 577 c 0,31,32
 99 597 99 597 117 607 c 128,-1,33
 135 617 135 617 155 611.5 c 128,-1,34
 175 606 175 606 185 588 c 128,-1,35
 195 570 195 570 190 550 c 0,36,37
 175 496 175 496 176 343 c 1,38,39
 309 348 309 348 395 349 c 1,40,41
 393 380 393 380 391 410 c 0,42,43
 386 489 386 489 375 553 c 0,44,45
 371 574 371 574 383.5 591 c 128,-1,46
 396 608 396 608 416 611 c 128,-1,47
 436 614 436 614 453 602 c 128,-1,48
 470 590 470 590 473 570 c 0,0,1
EndSplineSet
Validated: 33
EndChar

StartChar: I
Encoding: 73 73 23
Width: 409
GlyphClass: 2
Flags: W
LayerCount: 2
Fore
SplineSet
337 531 m 0,0,1
 323 481 323 481 322 412 c 0,2,3
 322 366 322 366 330 276 c 0,4,5
 331 273 331 273 331 268 c 0,6,7
 338 193 338 193 339 155 c 0,8,9
 342 91 342 91 335 40 c 0,10,11
 333 20 333 20 316.5 7 c 128,-1,12
 300 -6 300 -6 279.5 -3 c 128,-1,13
 259 0 259 0 246.5 16 c 128,-1,14
 234 32 234 32 236 53 c 0,15,16
 241 95 241 95 239 152 c 0,17,18
 238 187 238 187 231 259 c 0,19,20
 231 264 231 264 231 267 c 0,21,22
 222 361 222 361 222 412 c 0,23,24
 223 495 223 495 241 559 c 0,25,26
 247 579 247 579 265 589 c 128,-1,27
 283 599 283 599 303 593 c 128,-1,28
 323 587 323 587 333 569 c 128,-1,29
 343 551 343 551 337 531 c 0,0,1
EndSplineSet
Validated: 33
EndChar

StartChar: J
Encoding: 74 74 24
Width: 585
GlyphClass: 2
Flags: W
LayerCount: 2
Fore
SplineSet
103 605 m 0,0,1
 122 603 122 603 158 599 c 0,2,3
 225 591 225 591 257 589 c 0,4,5
 376 578 376 578 460 589 c 0,6,7
 480 591 480 591 496.5 578.5 c 128,-1,8
 513 566 513 566 515 545 c 0,9,10
 517 531 517 531 511 518 c 1,11,12
 508 490 508 490 509 408 c 0,13,14
 509 354 509 354 508 325 c 0,15,16
 507 256 507 256 498 207 c 0,17,18
 487 141 487 141 461 98 c 0,19,20
 392 -20 392 -20 231 16 c 0,21,22
 207 22 207 22 180 36 c 0,23,24
 165 45 165 45 141 62 c 0,25,26
 111 82 111 82 100 88 c 0,27,28
 82 97 82 97 75.5 116.5 c 128,-1,29
 69 136 69 136 78 154.5 c 128,-1,30
 87 173 87 173 106.5 179.5 c 128,-1,31
 126 186 126 186 145 177 c 0,32,33
 162 168 162 168 198 144 c 0,34,35
 236 117 236 117 253 114 c 0,36,37
 304 102 304 102 336 114 c 0,38,39
 360 123 360 123 375 149 c 0,40,41
 405 200 405 200 408 327 c 0,42,43
 409 354 409 354 409 408 c 0,44,45
 409 428 409 428 409 454.5 c 128,-1,46
 409 481 409 481 409 484 c 1,47,48
 340 481 340 481 249 489 c 0,49,50
 215 492 215 492 147 499 c 0,51,52
 111 503 111 503 93 505 c 0,53,54
 73 507 73 507 59.5 523.5 c 128,-1,55
 46 540 46 540 48.5 560.5 c 128,-1,56
 51 581 51 581 67 594 c 128,-1,57
 83 607 83 607 103 605 c 0,0,1
EndSplineSet
Validated: 33
EndChar

StartChar: K
Encoding: 75 75 25
Width: 612
GlyphClass: 2
Flags: W
LayerCount: 2
Fore
SplineSet
201 562 m 0,0,1
 206 520 206 520 207 465 c 0,2,3
 207 433 207 433 207 370 c 1,4,5
 230 388 230 388 254 413 c 0,6,7
 280 439 280 439 325 490 c 0,8,9
 326 491 326 491 329 494.5 c 128,-1,10
 332 498 332 498 335.5 501.5 c 128,-1,11
 339 505 339 505 340 507 c 0,12,13
 384 557 384 557 411 585 c 0,14,15
 426 599 426 599 446.5 599 c 128,-1,16
 467 599 467 599 482 584.5 c 128,-1,17
 497 570 497 570 497 549 c 128,-1,18
 497 528 497 528 482 514 c 0,19,20
 457 489 457 489 415 441 c 0,21,22
 414 439 414 439 410.5 435.5 c 128,-1,23
 407 432 407 432 404 428.5 c 128,-1,24
 401 425 401 425 401 424 c 0,25,26
 353 370 353 370 325 342 c 0,27,28
 314 331 314 331 304 321 c 1,29,30
 310 316 310 316 316 309 c 0,31,32
 318 307 318 307 322 303 c 128,-1,33
 326 299 326 299 330 294.5 c 128,-1,34
 334 290 334 290 339 285.5 c 128,-1,35
 344 281 344 281 348 276.5 c 128,-1,36
 352 272 352 272 355.5 268.5 c 128,-1,37
 359 265 359 265 361 262 c 2,38,-1
 363 260 l 2,39,40
 411 211 411 211 442 183 c 0,41,42
 484 144 484 144 520 120 c 0,43,44
 537 108 537 108 541.5 88 c 128,-1,45
 546 68 546 68 534.5 50.5 c 128,-1,46
 523 33 523 33 502.5 29 c 128,-1,47
 482 25 482 25 465 37 c 0,48,49
 422 65 422 65 374 109 c 0,50,51
 341 139 341 139 292 191 c 2,52,-1
 288 195 l 2,53,54
 284 199 284 199 278 205 c 128,-1,55
 272 211 272 211 265.5 217.5 c 128,-1,56
 259 224 259 224 253.5 230 c 128,-1,57
 248 236 248 236 245 239 c 0,58,59
 233 251 233 251 223 261 c 1,60,61
 216 258 216 258 208 258 c 1,62,63
 209 238 209 238 210 218 c 0,64,65
 214 152 214 152 225 103 c 0,66,67
 227 96 227 96 227 88 c 0,68,69
 227 87 227 87 227 86 c 0,70,71
 238 66 238 66 231 46 c 128,-1,72
 224 26 224 26 205.5 17 c 128,-1,73
 187 8 187 8 168 14 c 0,74,75
 151 20 151 20 140 34 c 0,76,77
 132 44 132 44 129 57 c 0,78,79
 127 66 127 66 127 80 c 2,80,-1
 127 81 l 1,81,82
 115 136 115 136 110 212 c 0,83,84
 107 262 107 262 107 345 c 0,85,86
 107 353 107 353 107 369 c 0,87,88
 108 494 108 494 102 552 c 0,89,90
 100 572 100 572 113 588 c 128,-1,91
 126 604 126 604 146.5 606 c 128,-1,92
 167 608 167 608 183 595 c 128,-1,93
 199 582 199 582 201 562 c 0,0,1
EndSplineSet
Validated: 33
EndChar

StartChar: L
Encoding: 76 76 26
Width: 644
GlyphClass: 2
Flags: W
LayerCount: 2
Fore
SplineSet
221 532 m 0,0,1
 207 473 207 473 202 377 c 0,2,3
 199 334 199 334 197 242 c 0,4,5
 197 236 197 236 197 231 c 0,6,7
 196 220 196 220 192 180 c 0,8,9
 190 162 190 162 190 151 c 0,10,11
 188 128 188 128 188 113 c 1,12,13
 243 102 243 102 345 108 c 0,14,15
 364 109 364 109 399 112 c 0,16,17
 486 119 486 119 524 119 c 0,18,19
 545 119 545 119 559.5 104.5 c 128,-1,20
 574 90 574 90 574 69 c 128,-1,21
 574 48 574 48 559.5 33.5 c 128,-1,22
 545 19 545 19 524 19 c 0,23,24
 490 19 490 19 407 13 c 0,25,26
 371 10 371 10 351 8 c 0,27,28
 287 4 287 4 242 6 c 0,29,30
 182 9 182 9 136 23 c 0,31,32
 129 25 129 25 122 29 c 0,33,34
 108 37 108 37 101 52 c 0,35,36
 90 73 90 73 89 106 c 0,37,38
 88 128 88 128 90 158 c 0,39,40
 91 171 91 171 93 190 c 0,41,42
 97 226 97 226 97 234 c 0,43,44
 97 238 97 238 97 245 c 0,45,46
 99 338 99 338 102 383 c 0,47,48
 108 488 108 488 124 555 c 0,49,50
 129 575 129 575 146.5 586 c 128,-1,51
 164 597 164 597 184 592 c 128,-1,52
 204 587 204 587 215 569.5 c 128,-1,53
 226 552 226 552 221 532 c 0,0,1
EndSplineSet
Validated: 33
EndChar

StartChar: M
Encoding: 77 77 27
Width: 618
GlyphClass: 2
Flags: W
LayerCount: 2
Fore
SplineSet
541 537 m 0,0,1
 551 436 551 436 548 280 c 0,2,3
 548 253 548 253 547 201 c 0,4,5
 545 109 545 109 545 63 c 0,6,7
 545 43 545 43 530.5 28 c 128,-1,8
 516 13 516 13 495 13 c 128,-1,9
 474 13 474 13 459.5 28 c 128,-1,10
 445 43 445 43 445 63 c 0,11,12
 445 110 445 110 447 203 c 0,13,14
 448 255 448 255 448 281 c 0,15,16
 450 366 450 366 448 426 c 1,17,18
 444 423 444 423 439.5 418 c 128,-1,19
 435 413 435 413 432.5 410.5 c 128,-1,20
 430 408 430 408 429 408 c 0,21,22
 428 407 428 407 427 405 c 0,23,24
 383 362 383 362 361 340 c 0,25,26
 345 326 345 326 335 318 c 0,27,28
 329 312 329 312 323.5 308.5 c 128,-1,29
 318 305 318 305 313 303 c 0,30,31
 296 296 296 296 279 301 c 0,32,33
 263 305 263 305 247 320 c 0,34,35
 239 327 239 327 229 339 c 0,36,37
 225 343 225 343 222 348 c 0,38,39
 219 351 219 351 214 356 c 2,40,-1
 211 361 l 2,41,42
 209 363 209 363 208 364 c 0,43,44
 203 371 203 371 201 372 c 0,45,46
 174 399 174 399 157 419 c 1,47,48
 157 417 157 417 157 413 c 0,49,50
 162 355 162 355 162 328 c 0,51,52
 162 283 162 283 155 196 c 0,53,54
 148 113 148 113 148 72 c 0,55,56
 148 52 148 52 133.5 37 c 128,-1,57
 119 22 119 22 98.5 22 c 128,-1,58
 78 22 78 22 63 37 c 128,-1,59
 48 52 48 52 48 72 c 0,60,61
 48 117 48 117 56 204 c 0,62,63
 62 287 62 287 62 328 c 0,64,65
 62 351 62 351 58 404 c 0,66,67
 57 415 57 415 56 421 c 0,68,69
 49 501 49 501 56 547 c 0,70,71
 60 568 60 568 76.5 580 c 128,-1,72
 93 592 93 592 114 589 c 0,73,74
 121 587 121 587 128 584 c 1,75,76
 144 587 144 587 159.5 579.5 c 128,-1,77
 175 572 175 572 182 556 c 0,78,79
 194 531 194 531 220 499 c 0,80,81
 239 476 239 476 272 443 c 0,82,83
 277 438 277 438 285 428 c 0,84,85
 287 426 287 426 289 424 c 0,86,87
 291 420 291 420 292 420 c 0,88,89
 294 417 294 417 295 416 c 0,90,91
 316 436 316 436 356 476 c 0,92,93
 357 477 357 477 359 478 c 0,94,95
 359 479 359 479 371.5 491.5 c 128,-1,96
 384 504 384 504 397.5 517.5 c 128,-1,97
 411 531 411 531 416 536 c 0,98,99
 445 566 445 566 455 573 c 0,100,101
 468 584 468 584 484.5 585 c 128,-1,102
 501 586 501 586 515 577 c 0,103,104
 538 564 538 564 541 537 c 0,0,1
EndSplineSet
Validated: 33
EndChar

StartChar: N
Encoding: 78 78 28
Width: 583
GlyphClass: 2
Flags: W
LayerCount: 2
Fore
SplineSet
72 82 m 0,0,1
 67 212 67 212 68 291 c 0,2,3
 68 409 68 409 80 503 c 0,4,5
 81 514 81 514 84 523 c 0,6,7
 90 538 90 538 101 548 c 0,8,9
 117 561 117 561 136 562 c 0,10,11
 150 562 150 562 164 556 c 0,12,13
 186 546 186 546 213 512 c 0,14,15
 247 469 247 469 304 371 c 0,16,17
 313 355 313 355 323 338 c 0,18,19
 340 309 340 309 360 272 c 0,20,21
 368 258 368 258 378 241 c 0,22,23
 378 240 378 240 384.5 227.5 c 128,-1,24
 391 215 391 215 393 212 c 0,25,26
 405 192 405 192 412 178 c 1,27,28
 413 186 413 186 413 195 c 0,29,30
 414 219 414 219 413 259 c 0,31,32
 412 282 412 282 412 288 c 0,33,34
 412 296 412 296 413 313 c 0,35,36
 413 364 413 364 412 390 c 0,37,38
 411 460 411 460 404 510 c 0,39,40
 401 530 401 530 413.5 546.5 c 128,-1,41
 426 563 426 563 446.5 566 c 128,-1,42
 467 569 467 569 483.5 556.5 c 128,-1,43
 500 544 500 544 503 524 c 0,44,45
 511 468 511 468 512 392 c 0,46,47
 513 365 513 365 513 313 c 0,48,49
 512 296 512 296 512 288 c 0,50,51
 512 283 512 283 513 261 c 0,52,53
 514 218 514 218 513 192 c 0,54,55
 512 156 512 156 508 130 c 0,56,57
 503 93 503 93 491 72 c 0,58,59
 480 52 480 52 462 42 c 0,60,61
 438 29 438 29 411 36 c 0,62,63
 380 46 380 46 349 88 c 0,64,65
 341 100 341 100 306 164 c 0,66,67
 304 167 304 167 297.5 179 c 128,-1,68
 291 191 291 191 290 192 c 0,69,70
 280 210 280 210 273 223 c 0,71,72
 252 260 252 260 236 288 c 0,73,74
 227 305 227 305 218 321 c 0,75,76
 191 366 191 366 171 398 c 1,77,78
 168 348 168 348 168 290 c 0,79,80
 167 213 167 213 172 85 c 0,81,82
 172 64 172 64 158 49 c 128,-1,83
 144 34 144 34 123.5 33.5 c 128,-1,84
 103 33 103 33 87.5 47 c 128,-1,85
 72 61 72 61 72 82 c 0,0,1
EndSplineSet
Validated: 33
EndChar

StartChar: O
Encoding: 79 79 29
Width: 631
GlyphClass: 2
Flags: W
LayerCount: 2
Fore
SplineSet
294 112 m 1,0,1
 317 123 317 123 339 112 c 0,2,3
 355 104 355 104 369 108 c 0,4,5
 384 112 384 112 400 131 c 0,6,7
 441 177 441 177 456 264 c 0,8,9
 472 354 472 354 447 417 c 0,10,11
 425 473 425 473 375 477 c 0,12,13
 274 484 274 484 218 433 c 0,14,15
 169 389 169 389 166 315 c 0,16,17
 164 240 164 240 209 179 c 0,18,19
 242 134 242 134 294 112 c 1,0,1
325 0 m 0,20,21
 201 22 201 22 129 119 c 0,22,23
 62 208 62 208 66 319 c 0,24,25
 71 434 71 434 150 507 c 0,26,27
 238 587 238 587 382 577 c 0,28,29
 438 573 438 573 478.5 540.5 c 128,-1,30
 519 508 519 508 540 453 c 0,31,32
 575 364 575 364 555 247 c 0,33,34
 535 132 535 132 476 65 c 0,35,36
 440 24 440 24 396 12 c 0,37,38
 378 7 378 7 360 7 c 1,39,40
 343 -3 343 -3 325 0 c 0,20,21
EndSplineSet
Validated: 33
EndChar

StartChar: P
Encoding: 80 80 30
Width: 577
GlyphClass: 2
Flags: W
LayerCount: 2
Fore
SplineSet
235 304 m 0,0,1
 236 303 236 303 238 303 c 0,2,3
 270 301 270 301 285 301 c 0,4,5
 329 301 329 301 362 314 c 0,6,7
 412 334 412 334 407 382 c 0,8,9
 405 406 405 406 389 426 c 128,-1,10
 373 446 373 446 348 456 c 0,11,12
 318 467 318 467 277 471 c 0,13,14
 253 473 253 473 215 473 c 1,15,16
 216 457 216 457 221 432 c 0,17,18
 221 427 221 427 223 419 c 0,19,20
 232 368 232 368 233 341 c 0,21,22
 234 323 234 323 235 304 c 0,0,1
118 574 m 0,23,24
 143 572 143 572 190 573 c 2,25,-1
 194 573 l 2,26,27
 254 573 254 573 285 570 c 0,28,29
 340 566 340 566 384 549 c 0,30,31
 435 530 435 530 468.5 487.5 c 128,-1,32
 502 445 502 445 507 392 c 0,33,34
 513 337 513 337 484 290.5 c 128,-1,35
 455 244 455 244 400 221 c 0,36,37
 348 200 348 200 284 201 c 0,38,39
 267 201 267 201 235 203 c 1,40,41
 235 197 235 197 235 191 c 0,42,43
 235 177 235 177 234 148 c 0,44,45
 233 85 233 85 233 53 c 0,46,47
 233 33 233 33 218.5 18 c 128,-1,48
 204 3 204 3 183.5 3 c 128,-1,49
 163 3 163 3 148 18 c 128,-1,50
 133 33 133 33 133 53 c 0,51,52
 133 85 133 85 134 149 c 0,53,54
 135 178 135 178 135 193 c 0,55,56
 135 214 135 214 135 232 c 1,57,58
 129 243 129 243 129 256 c 0,59,60
 129 268 129 268 135 279 c 1,61,62
 135 310 135 310 133 337 c 0,63,64
 132 356 132 356 124 402 c 0,65,66
 123 410 123 410 122 415 c 0,67,68
 116 448 116 448 115 470 c 0,69,70
 114 472 114 472 114 474 c 1,71,72
 113 474 113 474 112 474 c 0,73,74
 91 476 91 476 77.5 491.5 c 128,-1,75
 64 507 64 507 65.5 527.5 c 128,-1,76
 67 548 67 548 82.5 561.5 c 128,-1,77
 98 575 98 575 118 574 c 0,23,24
EndSplineSet
Validated: 33
EndChar

StartChar: Q
Encoding: 81 81 31
Width: 597
GlyphClass: 2
Flags: W
LayerCount: 2
Fore
SplineSet
249 166 m 1,0,1
 263 154 263 154 278 155 c 0,2,3
 286 155 286 155 295 153 c 0,4,5
 343 157 343 157 379 203 c 0,6,7
 418 254 418 254 426 330 c 0,8,9
 434 404 434 404 407 451 c 0,10,11
 383 493 383 493 337 491 c 0,12,13
 269 488 269 488 233 438 c 0,14,15
 199 390 199 390 198 316 c 0,16,17
 198 287 198 287 203 260 c 1,18,19
 239 295 239 295 261 322 c 0,20,21
 274 338 274 338 294.5 340.5 c 128,-1,22
 315 343 315 343 331 330 c 128,-1,23
 347 317 347 317 349.5 296.5 c 128,-1,24
 352 276 352 276 339 260 c 0,25,26
 318 234 318 234 289 204 c 0,27,28
 274 189 274 189 249 166 c 1,0,1
54 105 m 0,29,30
 76 135 76 135 109 170 c 0,31,32
 116 176 116 176 122 182 c 1,33,34
 97 244 97 244 98 317 c 0,35,36
 99 423 99 423 152 497 c 0,37,38
 217 586 217 586 333 591 c 0,39,40
 385 593 385 593 426.5 569.5 c 128,-1,41
 468 546 468 546 494 501 c 0,42,43
 536 426 536 426 525 320 c 0,44,45
 515 215 515 215 458 142 c 0,46,47
 390 52 390 52 286 52 c 0,48,49
 278 52 278 52 270 55 c 0,50,51
 231 57 231 57 197 80 c 0,52,53
 187 87 187 87 177 96 c 1,54,55
 152 69 152 69 135 45 c 0,56,57
 122 29 122 29 101.5 25.5 c 128,-1,58
 81 22 81 22 64.5 34.5 c 128,-1,59
 48 47 48 47 45 67.5 c 128,-1,60
 42 88 42 88 54 105 c 0,29,30
EndSplineSet
Validated: 33
EndChar

StartChar: R
Encoding: 82 82 32
Width: 578
GlyphClass: 2
Flags: W
LayerCount: 2
Fore
SplineSet
305 246 m 1,0,1
 324 234 324 234 328 232 c 0,2,3
 388 194 388 194 421 167 c 0,4,5
 473 126 473 126 500 85 c 0,6,7
 511 68 511 68 507 47.5 c 128,-1,8
 503 27 503 27 486 15.5 c 128,-1,9
 469 4 469 4 448.5 8.5 c 128,-1,10
 428 13 428 13 417 30 c 0,11,12
 398 58 398 58 359 89 c 0,13,14
 329 112 329 112 275 147 c 0,15,16
 271 150 271 150 253 161 c 128,-1,17
 235 172 235 172 232 174 c 0,18,19
 207 190 207 190 191 201 c 0,20,21
 187 204 187 204 184 206 c 1,22,23
 190 103 190 103 190 42 c 0,24,25
 190 21 190 21 175.5 6.5 c 128,-1,26
 161 -8 161 -8 140 -8 c 128,-1,27
 119 -8 119 -8 104.5 6.5 c 128,-1,28
 90 21 90 21 90 42 c 0,29,30
 90 104 90 104 82 231 c 0,31,32
 77 314 77 314 75 355 c 0,33,34
 72 422 72 422 74 476 c 1,35,36
 59 476 59 476 46 485 c 128,-1,37
 33 494 33 494 28 509 c 0,38,39
 21 528 21 528 30 547 c 128,-1,40
 39 566 39 566 58 573 c 0,41,42
 81 581 81 581 109 585 c 0,43,44
 121 590 121 590 133 589 c 0,45,46
 135 589 135 589 137 588 c 0,47,48
 180 591 180 591 225 584 c 0,49,50
 282 576 282 576 371 545 c 0,51,52
 420 528 420 528 448.5 494 c 128,-1,53
 477 460 477 460 481 422 c 128,-1,54
 485 384 485 384 464.5 345 c 128,-1,55
 444 306 444 306 400 278 c 0,56,57
 362 255 362 255 305 246 c 1,0,1
197 347 m 0,58,59
 233 339 233 339 277.5 343.5 c 128,-1,60
 322 348 322 348 347 363 c 0,61,62
 368 376 368 376 376 391 c 0,63,64
 382 402 382 402 381 411.5 c 128,-1,65
 380 421 380 421 372 430 c 0,66,67
 360 443 360 443 339 450 c 0,68,69
 258 478 258 478 210 486 c 0,70,71
 193 488 193 488 175 489 c 1,72,73
 172 432 172 432 175 359 c 1,74,75
 181 357 181 357 187 353 c 0,76,77
 190 351 190 351 195 348 c 0,78,79
 196 347 196 347 197 347 c 0,58,59
EndSplineSet
Validated: 33
EndChar

StartChar: S
Encoding: 83 83 33
Width: 555
GlyphClass: 2
Flags: W
LayerCount: 2
Fore
SplineSet
432 486 m 0,0,1
 329 492 329 492 262 471 c 0,2,3
 239 464 239 464 226.5 454 c 128,-1,4
 214 444 214 444 205 426 c 0,5,6
 203 421 203 421 202 417 c 2,7,-1
 202 416 l 2,8,9
 202 415 202 415 204 413 c 0,10,11
 216 400 216 400 264 379 c 0,12,13
 266 379 266 379 285.5 370.5 c 128,-1,14
 305 362 305 362 311 360 c 0,15,16
 345 345 345 345 368 332 c 0,17,18
 401 313 401 313 423 292 c 0,19,20
 484 234 484 234 479 152 c 0,21,22
 476 108 476 108 445 67 c 0,23,24
 420 33 420 33 384 11 c 0,25,26
 328 -23 328 -23 241 -9 c 0,27,28
 183 0 183 0 119 27 c 0,29,30
 100 36 100 36 92.5 55 c 128,-1,31
 85 74 85 74 93 93 c 128,-1,32
 101 112 101 112 120.5 119.5 c 128,-1,33
 140 127 140 127 159 119 c 0,34,35
 214 96 214 96 260.5 89.5 c 128,-1,36
 307 83 307 83 332 97 c 0,37,38
 351 109 351 109 364.5 126.5 c 128,-1,39
 378 144 378 144 379 158 c 0,40,41
 381 193 381 193 357 217 c 128,-1,42
 333 241 333 241 271 268 c 0,43,44
 266 270 266 270 246.5 278.5 c 128,-1,45
 227 287 227 287 224 288 c 0,46,47
 194 301 194 301 176 311 c 0,48,49
 148 327 148 327 131 344 c 0,50,51
 81 398 81 398 115 469 c 0,52,53
 149 541 149 541 233 567 c 128,-1,54
 317 593 317 593 438 586 c 0,55,56
 459 584 459 584 472.5 568.5 c 128,-1,57
 486 553 486 553 485 532.5 c 128,-1,58
 484 512 484 512 468.5 498.5 c 128,-1,59
 453 485 453 485 432 486 c 0,0,1
EndSplineSet
Validated: 33
EndChar

StartChar: T
Encoding: 84 84 34
Width: 715
GlyphClass: 2
Flags: W
LayerCount: 2
Fore
SplineSet
59 582 m 0,0,1
 69 588 69 588 87 591 c 0,2,3
 96 593 96 593 111 595 c 0,4,5
 135 597 135 597 175 598 c 0,6,7
 245 600 245 600 350 599 c 0,8,9
 443 598 443 598 520 595 c 0,10,11
 556 594 556 594 577 593 c 0,12,13
 589 592 589 592 595 591 c 0,14,15
 616 589 616 589 620.5 586.5 c 128,-1,16
 625 584 625 584 635 571 c 0,17,18
 648 555 648 555 645.5 534.5 c 128,-1,19
 643 514 643 514 627 501 c 0,20,21
 607 485 607 485 583 492 c 0,22,23
 582 492 582 492 582 492 c 1,24,25
 567 496 567 496 557 509 c 1,26,27
 560 505 560 505 562.5 501 c 128,-1,28
 565 497 565 497 565.5 496.5 c 128,-1,29
 566 496 566 496 569 494.5 c 128,-1,30
 572 493 572 493 574 493 c 128,-1,31
 576 493 576 493 582 492 c 1,32,33
 577 492 577 492 570 493 c 0,34,35
 551 494 551 494 516 495 c 0,36,37
 454 498 454 498 377 499 c 1,38,39
 379 461 379 461 379 415 c 0,40,41
 379 378 379 378 376 306 c 0,42,43
 376 305 376 305 376 303 c 0,44,45
 376 302 376 302 376 301 c 0,46,47
 373 216 373 216 374 173 c 0,48,49
 375 105 375 105 383 52 c 0,50,51
 387 32 387 32 375 15 c 128,-1,52
 363 -2 363 -2 342.5 -5.5 c 128,-1,53
 322 -9 322 -9 305 3.5 c 128,-1,54
 288 16 288 16 285 36 c 0,55,56
 275 96 275 96 274 171 c 0,57,58
 273 217 273 217 276 305 c 0,59,60
 276 306 276 306 276 309 c 0,61,62
 279 380 279 380 279 415 c 0,63,64
 279 462 279 462 277 499 c 1,65,66
 220 499 220 499 178 498 c 0,67,68
 141 497 141 497 120 495 c 0,69,70
 110 494 110 494 105 493 c 0,71,72
 88 486 88 486 70 491.5 c 128,-1,73
 52 497 52 497 42 513 c 0,74,75
 32 530 32 530 36.5 550.5 c 128,-1,76
 41 571 41 571 59 582 c 0,0,1
582 492 m 1,77,-1
 582 492 l 1,78,79
 582 492 582 492 582 492 c 129,-1,80
 582 492 582 492 582 492 c 1,77,-1
EndSplineSet
Validated: 37
EndChar

StartChar: U
Encoding: 85 85 35
Width: 579
GlyphClass: 2
Flags: W
LayerCount: 2
Fore
SplineSet
153 526 m 0,0,1
 128 296 128 296 171 190 c 0,2,3
 185 155 185 155 203 143 c 0,4,5
 215 136 215 136 230 140 c 0,6,7
 254 147 254 147 281.5 176.5 c 128,-1,8
 309 206 309 206 331 252 c 0,9,10
 361 310 361 310 375 381 c 1,11,12
 381 444 381 444 383 469 c 0,13,14
 385 511 385 511 382 534 c 0,15,16
 379 555 379 555 391.5 571.5 c 128,-1,17
 404 588 404 588 424.5 590.5 c 128,-1,18
 445 593 445 593 461.5 580.5 c 128,-1,19
 478 568 478 568 481 548 c 0,20,21
 481 546 481 546 482 545 c 0,22,23
 489 533 489 533 489 518 c 0,24,25
 489 440 489 440 474 367 c 0,26,27
 472 338 472 338 470 321 c 0,28,29
 463 236 463 236 469 189 c 0,30,31
 474 135 474 135 495 115 c 0,32,33
 509 101 509 101 509 80 c 128,-1,34
 509 59 509 59 494.5 44.5 c 128,-1,35
 480 30 480 30 459 30 c 128,-1,36
 438 30 438 30 424 45 c 0,37,38
 390 78 390 78 376 135 c 1,39,40
 321 62 321 62 257 44 c 0,41,42
 199 28 199 28 150 58 c 0,43,44
 104 87 104 87 78 153 c 0,45,46
 26 282 26 282 54 537 c 0,47,48
 56 558 56 558 72 571 c 128,-1,49
 88 584 88 584 108.5 581.5 c 128,-1,50
 129 579 129 579 142 563 c 128,-1,51
 155 547 155 547 153 526 c 0,0,1
EndSplineSet
Validated: 33
EndChar

StartChar: V
Encoding: 86 86 36
Width: 690
GlyphClass: 2
Flags: W
LayerCount: 2
Fore
SplineSet
159 520 m 0,0,1
 157 503 157 503 176 465 c 0,2,3
 183 451 183 451 196 429 c 0,4,5
 198 426 198 426 201 421 c 2,6,-1
 204 416 l 2,7,8
 205 414 205 414 206 412 c 0,9,10
 213 401 213 401 217 394 c 0,11,12
 229 373 229 373 235 358 c 0,13,14
 237 354 237 354 246.5 331.5 c 128,-1,15
 256 309 256 309 266 285 c 128,-1,16
 276 261 276 261 285 239 c 128,-1,17
 294 217 294 217 295 216 c 0,18,19
 296 214 296 214 297 211 c 0,20,21
 309 181 309 181 319 158 c 1,22,23
 333 184 333 184 354 225 c 0,24,25
 363 242 363 242 377 268 c 2,26,-1
 388 290 l 2,27,28
 396 305 396 305 400 313 c 0,29,30
 401 315 401 315 402 316 c 0,31,32
 505 515 505 515 528 549 c 0,33,34
 540 567 540 567 560.5 571 c 128,-1,35
 581 575 581 575 598 563.5 c 128,-1,36
 615 552 615 552 619 531.5 c 128,-1,37
 623 511 623 511 612 494 c 0,38,39
 592 464 592 464 490 270 c 0,40,41
 489 268 489 268 489 267 c 2,42,-1
 465 222 l 2,43,44
 452 195 452 195 443 178 c 0,45,46
 418 130 418 130 402 101 c 0,47,48
 382 64 382 64 371 45 c 0,49,50
 365 34 365 34 361 27 c 0,51,52
 357 22 357 22 354 19 c 0,53,54
 346 9 346 9 339 4.5 c 128,-1,55
 332 0 332 0 318 -1 c 0,56,57
 301 -2 301 -2 292 2.5 c 128,-1,58
 283 7 283 7 274 20 c 0,59,60
 271 23 271 23 268.5 27.5 c 128,-1,61
 266 32 266 32 262 39 c 0,62,63
 256 51 256 51 247 73 c 0,64,65
 232 108 232 108 204 173 c 0,66,67
 203 175 203 175 202 177 c 0,68,69
 202 178 202 178 193 200 c 128,-1,70
 184 222 184 222 174 246 c 128,-1,71
 164 270 164 270 154.5 292 c 128,-1,72
 145 314 145 314 143 318 c 0,73,74
 139 328 139 328 130 345 c 0,75,76
 126 351 126 351 120 361 c 0,77,78
 119 363 119 363 118 365 c 0,79,80
 116 369 116 369 115 370 c 0,81,82
 112 375 112 375 110 379 c 0,83,84
 96 403 96 403 87 420 c 0,85,86
 72 448 72 448 66 472 c 0,87,88
 56 505 56 505 60 533 c 0,89,90
 62 553 62 553 78.5 566 c 128,-1,91
 95 579 95 579 115.5 576.5 c 128,-1,92
 136 574 136 574 148.5 557.5 c 128,-1,93
 161 541 161 541 159 520 c 0,0,1
EndSplineSet
Validated: 33
EndChar

StartChar: W
Encoding: 87 87 37
Width: 655
GlyphClass: 2
Flags: W
LayerCount: 2
Fore
SplineSet
134 526 m 0,0,1
 137 462 137 462 161 298 c 0,2,3
 171 228 171 228 181 180 c 1,4,5
 205 225 205 225 232 292 c 0,6,7
 232 293 232 293 232 294 c 2,8,-1
 233 295 l 2,9,10
 234 300 234 300 236 303 c 0,11,12
 238 310 238 310 241 315 c 0,13,14
 245 322 245 322 249 328 c 0,15,16
 254 334 254 334 260 338 c 0,17,18
 273 347 273 347 289 347 c 0,19,20
 301 347 301 347 312 342 c 0,21,22
 319 339 319 339 325 334 c 0,23,24
 331 328 331 328 337 320 c 0,25,26
 343 313 343 313 348 303 c 0,27,28
 351 297 351 297 355 291 c 0,29,30
 356 289 356 289 357 286 c 2,31,-1
 357 285 l 1,32,-1
 358 284 l 2,33,34
 359 282 359 282 361 277 c 0,35,36
 361 276 361 276 362 275 c 2,37,-1
 365 268 l 2,38,39
 368 261 368 261 371.5 253 c 128,-1,40
 375 245 375 245 379 236 c 128,-1,41
 383 227 383 227 385 223 c 0,42,43
 399 191 399 191 412 169 c 1,44,45
 420 206 420 206 431 284 c 0,46,47
 432 288 432 288 433.5 297.5 c 128,-1,48
 435 307 435 307 436 315.5 c 128,-1,49
 437 324 437 324 437 325 c 0,50,51
 451 414 451 414 460 459 c 0,52,53
 474 532 474 532 491 566 c 0,54,55
 500 584 500 584 520 590.5 c 128,-1,56
 540 597 540 597 558.5 588 c 128,-1,57
 577 579 577 579 583.5 559 c 128,-1,58
 590 539 590 539 581 521 c 0,59,60
 570 499 570 499 558 440 c 0,61,62
 549 397 549 397 536 310 c 0,63,64
 536 309 536 309 535 300.5 c 128,-1,65
 534 292 534 292 532.5 282.5 c 128,-1,66
 531 273 531 273 530 269 c 0,67,68
 517 179 517 179 507 136 c 0,69,70
 500 104 500 104 493 84 c 0,71,72
 482 53 482 53 467 38 c 0,73,74
 453 24 453 24 434 23 c 0,75,76
 424 22 424 22 413 26 c 0,77,78
 404 29 404 29 396 35 c 0,79,80
 393 37 393 37 390 39 c 0,81,82
 388 41 388 41 385 44 c 0,83,84
 384 44 384 44 383 45 c 0,85,86
 355 72 355 72 330 111 c 0,87,88
 313 139 313 139 294 182 c 1,89,-1
 293 182 l 1,90,91
 262 114 262 114 226 63 c 1,92,-1
 226 62 l 1,93,-1
 225 61 l 2,94,95
 222 57 222 57 220 54 c 0,96,97
 216 48 216 48 211 44 c 0,98,99
 203 35 203 35 193 30 c 0,100,101
 176 22 176 22 157.5 25 c 128,-1,102
 139 28 139 28 125 42 c 128,-1,103
 111 56 111 56 100 88 c 0,104,105
 94 109 94 109 87 141 c 0,106,107
 75 197 75 197 62 283 c 0,108,109
 37 453 37 453 34 522 c 0,110,111
 33 543 33 543 47.5 558 c 128,-1,112
 62 573 62 573 82.5 574 c 128,-1,113
 103 575 103 575 118 561 c 128,-1,114
 133 547 133 547 134 526 c 0,0,1
EndSplineSet
Validated: 33
EndChar

StartChar: X
Encoding: 88 88 38
Width: 593
GlyphClass: 2
Flags: W
LayerCount: 2
Fore
SplineSet
127 549 m 0,0,1
 146 521 146 521 200 469 c 2,2,-1
 201 468 l 2,3,4
 203 467 203 467 203 466 c 0,5,6
 243 428 243 428 262 406 c 0,7,8
 275 390 275 390 289 375 c 1,9,10
 363 461 363 461 431 546 c 0,11,12
 444 562 444 562 464.5 564.5 c 128,-1,13
 485 567 485 567 501 554 c 128,-1,14
 517 541 517 541 519.5 520.5 c 128,-1,15
 522 500 522 500 509 484 c 0,16,17
 434 390 434 390 352 295 c 1,18,-1
 359 287 l 2,19,20
 407 227 407 227 433 196 c 0,21,22
 474 148 474 148 509 113 c 0,23,24
 523 98 523 98 523 77.5 c 128,-1,25
 523 57 523 57 508.5 42 c 128,-1,26
 494 27 494 27 473.5 27 c 128,-1,27
 453 27 453 27 438 42 c 0,28,29
 400 80 400 80 356 132 c 0,30,31
 330 163 330 163 285 219 c 1,32,33
 205 129 205 129 124 43 c 0,34,35
 109 28 109 28 88.5 27.5 c 128,-1,36
 68 27 68 27 53 41.5 c 128,-1,37
 38 56 38 56 37.5 76.5 c 128,-1,38
 37 97 37 97 51 112 c 0,39,40
 138 203 138 203 222 298 c 1,41,42
 204 321 204 321 186 341 c 0,43,44
 170 359 170 359 134 394 c 0,45,46
 131 396 131 396 131 397 c 0,47,48
 102 425 102 425 87 441 c 0,49,50
 61 468 61 468 45 493 c 0,51,52
 33 510 33 510 37 530 c 128,-1,53
 41 550 41 550 58 562 c 128,-1,54
 75 574 75 574 95 570 c 128,-1,55
 115 566 115 566 127 549 c 0,0,1
EndSplineSet
Validated: 33
EndChar

StartChar: Y
Encoding: 89 89 39
Width: 619
GlyphClass: 2
Flags: W
LayerCount: 2
Fore
SplineSet
46 76 m 0,0,1
 60 91 60 91 121 164 c 0,2,3
 128 172 128 172 146.5 194 c 128,-1,4
 165 216 165 216 191 247.5 c 128,-1,5
 217 279 217 279 228 292 c 1,6,7
 219 305 219 305 208 319 c 0,8,9
 192 337 192 337 161 371 c 2,10,-1
 158 374 l 2,11,12
 117 418 117 418 98 442 c 0,13,14
 64 484 64 484 44 523 c 0,15,16
 34 541 34 541 40.5 561 c 128,-1,17
 47 581 47 581 65 590.5 c 128,-1,18
 83 600 83 600 103 593.5 c 128,-1,19
 123 587 123 587 133 569 c 0,20,21
 148 539 148 539 176 505 c 0,22,23
 193 483 193 483 231 442 c 2,24,-1
 232 441 l 1,25,-1
 234 439 l 2,26,27
 267 403 267 403 284 383 c 0,28,29
 289 377 289 377 294 371 c 1,30,31
 355 443 355 443 392 486 c 0,32,33
 424 523 424 523 441 542 c 0,34,35
 451 553 451 553 457 559 c 0,36,37
 461 563 461 563 464 566 c 0,38,39
 478 578 478 578 494 580 c 0,40,41
 514 582 514 582 530.5 569 c 128,-1,42
 547 556 547 556 549 535.5 c 128,-1,43
 551 515 551 515 538 499 c 128,-1,44
 525 483 525 483 505 480 c 1,45,46
 520 482 520 482 528 489 c 1,47,48
 524 485 524 485 515 475 c 0,49,50
 499 457 499 457 468 421 c 0,51,52
 420 365 420 365 327 254 c 0,53,54
 326 253 326 253 325 251 c 0,55,56
 315 239 315 239 261.5 175.5 c 128,-1,57
 208 112 208 112 198 100 c 0,58,59
 135 25 135 25 121 9 c 0,60,61
 107 -6 107 -6 86 -7.5 c 128,-1,62
 65 -9 65 -9 50 5 c 128,-1,63
 35 19 35 19 33.5 39.5 c 128,-1,64
 32 60 32 60 46 76 c 0,0,1
EndSplineSet
Validated: 33
EndChar

StartChar: Z
Encoding: 90 90 40
Width: 657
GlyphClass: 2
Flags: W
LayerCount: 2
Fore
SplineSet
97 596 m 0,0,1
 151 607 151 607 233 598 c 0,2,3
 247 596 247 596 274 593 c 0,4,5
 323 586 323 586 345 585 c 0,6,7
 348 585 348 585 385 586 c 0,8,9
 412 587 412 587 430 587 c 0,10,11
 471 588 471 588 496 585 c 0,12,13
 515 582 515 582 528 578 c 0,14,15
 538 574 538 574 546 569 c 0,16,17
 559 561 559 561 566 549 c 0,18,19
 581 524 581 524 571 496 c 0,20,21
 566 483 566 483 555 470 c 0,22,23
 548 463 548 463 539 454 c 0,24,25
 534 450 534 450 527 444 c 0,26,27
 523 441 523 441 523 440 c 0,28,29
 497 415 497 415 461 380 c 0,30,31
 454 373 454 373 427.5 347.5 c 128,-1,32
 401 322 401 322 398 319 c 0,33,34
 322 246 322 246 277 199 c 0,35,36
 239 158 239 158 209 121 c 1,37,38
 217 122 217 122 228 122 c 0,39,40
 231 123 231 123 242 124 c 2,41,-1
 252 124 l 2,42,43
 265 125 265 125 271 125 c 0,44,45
 315 125 315 125 404 125 c 0,46,47
 411 125 411 125 413 125 c 0,48,49
 494 124 494 124 538 124 c 0,50,51
 558 124 558 124 573 109.5 c 128,-1,52
 588 95 588 95 588 74 c 128,-1,53
 588 53 588 53 573 38.5 c 128,-1,54
 558 24 558 24 538 24 c 0,55,56
 493 24 493 24 413 25 c 0,57,58
 410 25 410 25 404 25 c 0,59,60
 315 25 315 25 271 25 c 0,61,62
 269 25 269 25 259 24 c 2,63,-1
 254 24 l 2,64,65
 249 24 249 24 243 23.5 c 128,-1,66
 237 23 237 23 235 23 c 0,67,68
 212 21 212 21 195 20 c 0,69,70
 160 19 160 19 137 21 c 0,71,72
 120 23 120 23 108 27 c 0,73,74
 99 30 99 30 91 35 c 0,75,76
 77 44 77 44 70 57 c 0,77,78
 61 74 61 74 66 94 c 0,79,80
 67 98 67 98 69 103 c 0,81,82
 71 106 71 106 73 109 c 0,83,84
 74 112 74 112 77 115 c 0,85,86
 79 118 79 118 84 124 c 0,87,88
 87 127 87 127 90 132 c 0,89,90
 91 132 91 132 91 133 c 2,91,-1
 92 134 l 1,92,93
 138 197 138 197 204 267 c 0,94,95
 251 317 251 317 328 391 c 0,96,97
 332 395 332 395 358.5 420.5 c 128,-1,98
 385 446 385 446 391 452 c 0,99,100
 412 472 412 472 428 487 c 1,101,102
 413 487 413 487 389 486 c 0,103,104
 347 485 347 485 339 485 c 0,105,106
 313 487 313 487 260 494 c 0,107,108
 235 497 235 497 222 499 c 0,109,110
 156 506 156 506 118 498 c 0,111,112
 98 493 98 493 80.5 504.5 c 128,-1,113
 63 516 63 516 58.5 536 c 128,-1,114
 54 556 54 556 65.5 573.5 c 128,-1,115
 77 591 77 591 97 596 c 0,0,1
EndSplineSet
Validated: 33
EndChar

StartChar: a
Encoding: 97 97 41
Width: 659
GlyphClass: 2
Flags: W
LayerCount: 2
Fore
SplineSet
131 560 m 0,0,1
 167 538 167 538 216 517 c 0,2,3
 251 503 251 503 311 481 c 0,4,5
 316 479 316 479 323 477 c 0,6,7
 324 476 324 476 329 474 c 128,-1,8
 334 472 334 472 335 472 c 0,9,10
 405 447 405 447 442 431 c 0,11,12
 443 430 443 430 461 424 c 0,13,14
 463 423 463 423 479.5 416.5 c 128,-1,15
 496 410 496 410 499 408 c 2,16,-1
 500 408 l 1,17,18
 527 398 527 398 540 392 c 0,19,20
 549 389 549 389 554 387 c 0,21,22
 557 386 557 386 558.5 385 c 128,-1,23
 560 384 560 384 561 384 c 0,24,25
 563 383 563 383 564.5 382 c 128,-1,26
 566 381 566 381 570 378 c 0,27,28
 572 377 572 377 574 375 c 128,-1,29
 576 373 576 373 580 369 c 0,30,31
 582 366 582 366 584 363 c 0,32,33
 586 358 586 358 588 352 c 0,34,35
 590 344 590 344 590 334 c 0,36,37
 588 323 588 323 583 313 c 0,38,39
 564 281 564 281 496 241 c 0,40,41
 453 215 453 215 370 173 c 0,42,43
 360 168 360 168 348 162 c 0,44,45
 344 161 344 161 328 153 c 128,-1,46
 312 145 312 145 309 143 c 0,47,48
 287 132 287 132 272 125 c 0,49,50
 232 104 232 104 207 90 c 0,51,52
 177 74 177 74 162 63 c 0,53,54
 155 58 155 58 152 55 c 0,55,56
 142 38 142 38 124 32 c 128,-1,57
 106 26 106 26 89 33 c 0,58,59
 70 41 70 41 62 60.5 c 128,-1,60
 54 80 54 80 62 99 c 0,61,62
 68 113 68 113 82 126 c 0,63,64
 90 135 90 135 103 144 c 0,65,66
 124 158 124 158 158 178 c 0,67,68
 185 193 185 193 227 214 c 0,69,70
 243 221 243 221 265 233 c 0,71,72
 268 234 268 234 284 242 c 128,-1,73
 300 250 300 250 303 252 c 0,74,75
 315 258 315 258 325 263 c 0,76,77
 402 301 402 301 441 324 c 1,78,79
 427 330 427 330 424 331 c 0,80,81
 406 338 406 338 403 339 c 0,82,83
 369 353 369 353 301 378 c 0,84,85
 299 379 299 379 294 380.5 c 128,-1,86
 289 382 289 382 288 382 c 0,87,88
 281 385 281 385 276 387 c 0,89,90
 214 410 214 410 177 425 c 0,91,92
 121 449 121 449 79 474 c 0,93,94
 62 484 62 484 56.5 504 c 128,-1,95
 51 524 51 524 62 542 c 128,-1,96
 73 560 73 560 93 565 c 128,-1,97
 113 570 113 570 131 560 c 0,0,1
EndSplineSet
Validated: 33
EndChar

StartChar: zero
Encoding: 98 48 42
Width: 563
GlyphClass: 2
Flags: W
LayerCount: 2
Fore
SplineSet
387 522 m 1,0,1
 312 518 312 518 268 501 c 0,2,3
 236 488 236 488 220.5 468 c 128,-1,4
 205 448 205 448 203 416 c 0,5,6
 202 396 202 396 204 389 c 0,7,8
 205 386 205 386 210 383 c 0,9,10
 238 366 238 366 266 362 c 0,11,12
 285 360 285 360 323 363 c 0,13,14
 334 364 334 364 339 364 c 0,15,16
 370 366 370 366 392 364 c 1,17,18
 391 379 391 379 390 407 c 0,19,20
 387 488 387 488 387 522 c 1,0,1
487 557 m 0,21,22
 487 512 487 512 490 411 c 0,23,24
 492 366 492 366 493 341 c 0,25,26
 497 163 497 163 481 64 c 0,27,28
 478 44 478 44 461 32 c 128,-1,29
 444 20 444 20 423.5 23.5 c 128,-1,30
 403 27 403 27 391 43.5 c 128,-1,31
 379 60 379 60 382 81 c 0,32,33
 394 152 394 152 394 263 c 1,34,35
 376 267 376 267 346 264 c 0,36,37
 342 264 342 264 331 263 c 0,38,39
 308 261 308 261 296 261 c 0,40,41
 273 260 273 260 254 263 c 0,42,43
 203 269 203 269 157 299 c 0,44,45
 121 321 121 321 109 360 c 0,46,47
 102 383 102 383 103 420 c 0,48,49
 106 486 106 486 144 533 c 0,50,51
 176 572 176 572 232 594 c 0,52,53
 274 611 274 611 332 618 c 0,54,55
 374 622 374 622 430 622 c 0,56,57
 447 622 447 622 460.5 611.5 c 128,-1,58
 474 601 474 601 478 585 c 1,59,60
 487 573 487 573 487 557 c 0,21,22
EndSplineSet
Validated: 33
EndChar

StartChar: c
Encoding: 99 99 43
Width: 572
GlyphClass: 2
Flags: W
LayerCount: 2
Fore
SplineSet
497 570 m 0,0,1
 497 553 497 553 500 411 c 0,2,3
 501 362 501 362 501 328 c 0,4,5
 503 218 503 218 501 158 c 0,6,7
 500 120 500 120 498 97 c 0,8,9
 497 83 497 83 495 73 c 0,10,11
 493 66 493 66 491 60 c 0,12,13
 486 48 486 48 478 40 c 0,14,15
 467 29 467 29 449 24 c 0,16,17
 442 22 442 22 431 21 c 0,18,19
 416 19 416 19 391 18 c 0,20,21
 349 17 349 17 282 19 c 0,22,23
 156 23 156 23 94 29 c 0,24,25
 74 31 74 31 60.5 47.5 c 128,-1,26
 47 64 47 64 49 84.5 c 128,-1,27
 51 105 51 105 67.5 118 c 128,-1,28
 84 131 84 131 104 129 c 0,29,30
 163 123 163 123 285 119 c 0,31,32
 349 117 349 117 388 118 c 0,33,34
 394 119 394 119 400 119 c 1,35,36
 401 136 401 136 401 161 c 0,37,38
 403 219 403 219 401 326 c 0,39,40
 401 360 401 360 400 409 c 0,41,42
 397 554 397 554 398 574 c 0,43,44
 398 594 398 594 413.5 608 c 128,-1,45
 429 622 429 622 449.5 621.5 c 128,-1,46
 470 621 470 621 484 605.5 c 128,-1,47
 498 590 498 590 497 570 c 0,0,1
EndSplineSet
Validated: 33
EndChar

StartChar: d
Encoding: 100 100 44
Width: 639
GlyphClass: 2
Flags: W
LayerCount: 2
Fore
SplineSet
39 84 m 0,0,1
 49 122 49 122 71 164 c 0,2,3
 85 189 85 189 113 233 c 0,4,5
 115 236 115 236 116 237 c 0,6,7
 117 239 117 239 118 241 c 0,8,9
 121 246 121 246 124 249 c 0,10,11
 144 281 144 281 155 301 c 0,12,13
 175 339 175 339 200 409 c 0,14,15
 202 414 202 414 207 427 c 0,16,17
 233 501 233 501 254 543 c 0,18,19
 254 544 254 544 254 545 c 0,20,21
 255 546 255 546 255 548 c 0,22,23
 257 553 257 553 259 557 c 0,24,25
 269 576 269 576 288 584 c 0,26,27
 307 591 307 591 327 585 c 0,28,29
 337 581 337 581 346 574 c 0,30,31
 354 567 354 567 363 555 c 0,32,33
 368 548 368 548 373 539 c 0,34,35
 378 531 378 531 383 521 c 0,36,37
 384 519 384 519 386 515 c 0,38,39
 387 514 387 514 387 514 c 1,40,-1
 387 513 l 1,41,42
 407 478 407 478 425 424 c 0,43,44
 436 390 436 390 455 326 c 0,45,46
 455 325 455 325 456.5 319.5 c 128,-1,47
 458 314 458 314 460 307.5 c 128,-1,48
 462 301 462 301 462 298 c 0,49,50
 487 210 487 210 505 167 c 0,51,52
 529 107 529 107 555 80 c 0,53,54
 570 66 570 66 570 45 c 128,-1,55
 570 24 570 24 555.5 9.5 c 128,-1,56
 541 -5 541 -5 520 -5 c 128,-1,57
 499 -5 499 -5 485 10 c 0,58,59
 444 51 444 51 412 130 c 0,60,61
 393 178 393 178 366 271 c 0,62,63
 365 273 365 273 364 277.5 c 128,-1,64
 363 282 363 282 361.5 286.5 c 128,-1,65
 360 291 360 291 359 294 c 2,66,-1
 358 298 l 2,67,68
 341 360 341 360 330 392 c 0,69,70
 322 414 322 414 315 432 c 1,71,72
 309 417 309 417 301 393 c 0,73,74
 296 380 296 380 294 375 c 0,75,76
 266 299 266 299 243 255 c 0,77,78
 231 231 231 231 208 195 c 0,79,80
 205 191 205 191 202 187 c 0,81,82
 201 185 201 185 200 183 c 2,83,-1
 198 181 l 2,84,85
 197 179 197 179 197 178 c 0,86,87
 171 138 171 138 159 117 c 0,88,89
 143 86 143 86 136 60 c 0,90,91
 131 39 131 39 113 28.5 c 128,-1,92
 95 18 95 18 75 23 c 128,-1,93
 55 28 55 28 44.5 46 c 128,-1,94
 34 64 34 64 39 84 c 0,0,1
EndSplineSet
Validated: 33
EndChar

StartChar: e
Encoding: 101 101 45
Width: 556
GlyphClass: 2
Flags: W
LayerCount: 2
Fore
SplineSet
464 553 m 0,0,1
 460 506 460 506 464 445 c 0,2,3
 466 407 466 407 474 330 c 0,4,5
 476 313 476 313 477 304 c 0,6,7
 485 221 485 221 486 170 c 0,8,9
 488 94 488 94 478 33 c 0,10,11
 474 12 474 12 457.5 0 c 128,-1,12
 441 -12 441 -12 420.5 -8.5 c 128,-1,13
 400 -5 400 -5 388 12 c 128,-1,14
 376 29 376 29 379 49 c 0,15,16
 388 101 388 101 386 167 c 0,17,18
 385 196 385 196 383 230 c 1,19,20
 380 228 380 228 378 226 c 0,21,22
 337 188 337 188 289 144 c 0,23,24
 234 94 234 94 201 62 c 0,25,26
 182 45 182 45 172 35 c 1,27,28
 175 38 175 38 175.5 39.5 c 128,-1,29
 176 41 176 41 175.5 44 c 128,-1,30
 175 47 175 47 176 54 c 1,31,32
 173 33 173 33 157 20 c 128,-1,33
 141 7 141 7 120.5 9.5 c 128,-1,34
 100 12 100 12 87 28 c 128,-1,35
 74 44 74 44 76 65 c 0,36,37
 77 69 77 69 77 74 c 128,-1,38
 77 79 77 79 78.5 81.5 c 128,-1,39
 80 84 80 84 90 95 c 0,40,41
 92 96 92 96 93 97 c 0,42,43
 96 101 96 101 102 107 c 0,44,45
 113 117 113 117 132 135 c 0,46,47
 166 167 166 167 221 218 c 0,48,49
 265 258 265 258 304 294 c 1,50,51
 267 327 267 327 225 367 c 0,52,53
 178 412 178 412 99 491 c 0,54,55
 84 506 84 506 84 526.5 c 128,-1,56
 84 547 84 547 98.5 562 c 128,-1,57
 113 577 113 577 134 577 c 128,-1,58
 155 577 155 577 170 562 c 0,59,60
 248 483 248 483 294 440 c 0,61,62
 334 401 334 401 370 369 c 1,63,64
 366 408 366 408 364 439 c 0,65,66
 360 507 360 507 364 561 c 0,67,68
 366 581 366 581 381.5 594.5 c 128,-1,69
 397 608 397 608 418 606.5 c 128,-1,70
 439 605 439 605 452.5 589 c 128,-1,71
 466 573 466 573 464 553 c 0,0,1
EndSplineSet
Validated: 33
EndChar

StartChar: f
Encoding: 102 102 46
Width: 699
GlyphClass: 2
Flags: W
LayerCount: 2
Fore
SplineSet
290 16 m 1,0,1
 185 41 185 41 121 116 c 0,2,3
 44 205 44 205 54 321 c 0,4,5
 63 440 63 440 158 516 c 0,6,7
 260 598 260 598 423 593 c 0,8,9
 480 592 480 592 524.5 564 c 128,-1,10
 569 536 569 536 596 488 c 0,11,12
 643 402 643 402 625 287.5 c 128,-1,13
 607 173 607 173 534 95 c 0,14,15
 448 3 448 3 323 3 c 0,16,17
 304 3 304 3 290 16 c 1,0,1
160 349 m 1,18,19
 179 343 179 343 227 342 c 0,20,21
 266 341 266 341 340 344 c 0,22,23
 347 344 347 344 361 345 c 0,24,25
 452 349 452 349 488 348 c 0,26,27
 512 347 512 347 529 345 c 1,28,29
 529 401 529 401 508 440 c 0,30,31
 480 492 480 492 420 493 c 0,32,33
 294 497 294 497 221 438 c 0,34,35
 176 402 176 402 160 349 c 1,18,19
EndSplineSet
Validated: 33
EndChar

StartChar: g
Encoding: 103 103 47
Width: 723
GlyphClass: 2
Flags: W
LayerCount: 2
Fore
SplineSet
180 255 m 1,0,1
 190 212 190 212 216 180 c 0,2,3
 261 123 261 123 342 116 c 1,4,5
 357 124 357 124 374 121 c 0,6,7
 439 109 439 109 488 158 c 0,8,9
 532 203 532 203 548 277 c 1,10,11
 492 277 492 277 372 266 c 0,12,13
 244 255 244 255 180 255 c 1,0,1
364 15 m 0,14,15
 219 15 219 15 138 117 c 0,16,17
 65 209 65 209 77 333 c 0,18,19
 82 394 82 394 109.5 447 c 128,-1,20
 137 500 137 500 182 537 c 0,21,22
 286 625 286 625 445 605 c 0,23,24
 566 589 566 589 621 481 c 0,25,26
 668 391 668 391 649 275 c 0,27,28
 630 160 630 160 559 88 c 0,29,30
 485 12 485 12 384 19 c 1,31,32
 374 15 374 15 364 15 c 0,14,15
EndSplineSet
Validated: 33
EndChar

StartChar: h
Encoding: 104 104 48
Width: 626
GlyphClass: 2
Flags: W
LayerCount: 2
Fore
SplineSet
443 533 m 1,0,1
 367 543 367 543 306 499 c 0,2,3
 273 475 273 475 251 438.5 c 128,-1,4
 229 402 229 402 222 361 c 0,5,6
 209 274 209 274 268 215 c 0,7,8
 328 154 328 154 452 142 c 1,9,10
 458 217 458 217 453 331 c 0,11,12
 452 356 452 356 449 405 c 0,13,14
 444 493 444 493 443 533 c 1,0,1
485 628 m 0,15,16
 488 628 488 628 492 628 c 0,17,18
 513 628 513 628 527.5 613.5 c 128,-1,19
 542 599 542 599 542 578 c 1,20,-1
 543 575 l 1,21,-1
 543 573 l 2,22,23
 543 522 543 522 549 411 c 0,24,25
 552 361 552 361 553 335 c 0,26,27
 559 202 559 202 550 115 c 1,28,29
 557 104 557 104 557 90 c 0,30,31
 557 68 557 68 540 53 c 1,32,33
 534 36 534 36 518.5 27 c 128,-1,34
 503 18 503 18 485 21 c 0,35,36
 464 24 464 24 452 42 c 1,37,38
 286 55 286 55 197 144 c 0,39,40
 151 190 151 190 132 250.5 c 128,-1,41
 113 311 113 311 123 376 c 0,42,43
 133 437 133 437 165.5 490.5 c 128,-1,44
 198 544 198 544 247 580 c 0,45,46
 353 656 353 656 485 628 c 0,15,16
EndSplineSet
Validated: 33
EndChar

StartChar: i
Encoding: 105 105 49
Width: 645
GlyphClass: 2
Flags: W
LayerCount: 2
Fore
SplineSet
121 359 m 0,0,1
 158 354 158 354 205 355 c 0,2,3
 233 356 233 356 275 359 c 1,4,5
 277 466 277 466 269 546 c 0,6,7
 266 566 266 566 279 582 c 128,-1,8
 292 598 292 598 313 600.5 c 128,-1,9
 334 603 334 603 350 590 c 128,-1,10
 366 577 366 577 368 556 c 0,11,12
 377 473 377 473 375 366 c 1,13,14
 397 367 397 367 419 368 c 0,15,16
 483 369 483 369 534 360 c 0,17,18
 554 357 554 357 566.5 340 c 128,-1,19
 579 323 579 323 575.5 302.5 c 128,-1,20
 572 282 572 282 555 270 c 128,-1,21
 538 258 538 258 518 262 c 0,22,23
 476 269 476 269 420 268 c 0,24,25
 397 267 397 267 372 266 c 1,26,27
 371 257 371 257 371 240 c 0,28,29
 366 132 366 132 366 77 c 0,30,31
 366 57 366 57 351.5 42 c 128,-1,32
 337 27 337 27 316 27 c 128,-1,33
 295 27 295 27 280.5 42 c 128,-1,34
 266 57 266 57 266 77 c 0,35,36
 266 134 266 134 271 244 c 0,37,38
 271 253 271 253 271 258 c 1,39,40
 235 256 235 256 207 255 c 0,41,42
 153 254 153 254 109 260 c 0,43,44
 88 262 88 262 75.5 278.5 c 128,-1,45
 63 295 63 295 65.5 315.5 c 128,-1,46
 68 336 68 336 84 348.5 c 128,-1,47
 100 361 100 361 121 359 c 0,0,1
EndSplineSet
Validated: 33
EndChar

StartChar: two
Encoding: 106 50 50
Width: 629
GlyphClass: 2
Flags: W
LayerCount: 2
Fore
SplineSet
398 94 m 1,0,1
 399 53 399 53 399 18 c 0,2,3
 399 -2 399 -2 384.5 -17 c 128,-1,4
 370 -32 370 -32 349 -32 c 128,-1,5
 328 -32 328 -32 313.5 -17 c 128,-1,6
 299 -2 299 -2 299 18 c 0,7,8
 299 49 299 49 298 84 c 1,9,10
 241 95 241 95 199 133 c 0,11,12
 142 186 142 186 135 263 c 0,13,14
 128 344 128 344 182 404 c 0,15,16
 224 451 224 451 295 467 c 1,17,18
 300 524 300 524 310 573 c 0,19,20
 314 594 314 594 331.5 605 c 128,-1,21
 349 616 349 616 369.5 612 c 128,-1,22
 390 608 390 608 401 590.5 c 128,-1,23
 412 573 412 573 408 553 c 0,24,25
 400 516 400 516 396 473 c 1,26,27
 455 465 455 465 498 427 c 0,28,29
 555 376 555 376 559 298 c 0,30,31
 563 219 563 219 509 160 c 0,32,33
 467 113 467 113 398 94 c 1,0,1
391 373 m 1,34,35
 390 329 390 329 392 276 c 0,36,37
 392 245 392 245 394 198 c 1,38,39
 419 209 419 209 435 227 c 0,40,41
 461 255 461 255 459 293 c 0,42,43
 457 329 457 329 431 352 c 0,44,45
 414 367 414 367 391 373 c 1,34,35
294 189 m 1,46,47
 292 241 292 241 292 273 c 0,48,49
 290 321 290 321 291 361 c 1,50,51
 270 352 270 352 256 337 c 0,52,53
 232 310 232 310 235 272 c 0,54,55
 238 233 238 233 267 207 c 0,56,57
 279 195 279 195 294 189 c 1,46,47
EndSplineSet
Validated: 33
EndChar

StartChar: k
Encoding: 107 107 51
Width: 683
GlyphClass: 2
Flags: W
LayerCount: 2
Fore
SplineSet
496 506 m 1,0,1
 497 505 497 505 498 504 c 1,2,3
 498 505 498 505 498 506 c 1,4,5
 497 506 497 506 496 506 c 1,0,1
541 7 m 2,6,-1
 358 7 l 2,7,8
 342 7 342 7 291 3 c 0,9,10
 257 0 257 0 237 -1 c 0,11,12
 189 -3 189 -3 155 1 c 0,13,14
 107 7 107 7 75 26 c 0,15,16
 61 35 61 35 57 42 c 128,-1,17
 53 49 53 49 50 67 c 0,18,19
 48 74 48 74 48 85 c 0,20,21
 46 104 46 104 45 137 c 0,22,23
 44 196 44 196 45 287 c 0,24,25
 47 498 47 498 54 547 c 0,26,27
 57 568 57 568 73.5 580 c 128,-1,28
 90 592 90 592 110 589 c 0,29,30
 123 588 123 588 132 581 c 0,31,32
 133 581 133 581 134 582 c 0,33,34
 142 585 142 585 151 588 c 0,35,36
 161 590 161 590 178 591 c 0,37,38
 202 594 202 594 245 595 c 0,39,40
 269 596 269 596 302 597 c 0,41,42
 303 597 303 597 311 597 c 128,-1,43
 319 597 319 597 326 597 c 128,-1,44
 333 597 333 597 334 597 c 0,45,46
 340 598 340 598 354 599 c 0,47,48
 357 599 357 599 370 600.5 c 128,-1,49
 383 602 383 602 386 602 c 0,50,51
 415 604 415 604 436 606 c 0,52,53
 479 608 479 608 508 605 c 0,54,55
 528 603 528 603 543 599 c 0,56,57
 565 593 565 593 579 580 c 0,58,59
 592 568 592 568 595 550 c 0,60,61
 596 547 596 547 596 543 c 0,62,63
 597 538 597 538 597 529 c 0,64,65
 598 516 598 516 598 491 c 0,66,67
 598 451 598 451 598 380 c 0,68,69
 598 352 598 352 598 312 c 0,70,71
 597 225 597 225 597 220 c 0,72,73
 598 217 598 217 600 204 c 0,74,75
 600 201 600 201 602.5 186.5 c 128,-1,76
 605 172 605 172 605 170 c 0,77,78
 607 156 607 156 608 145 c 0,79,80
 613 111 613 111 613 88 c 0,81,82
 614 72 614 72 611 60 c 0,83,84
 608 38 608 38 595 23 c 0,85,86
 579 5 579 5 554 5 c 0,87,88
 549 5 549 5 543 6 c 0,89,90
 542 6 542 6 541 7 c 2,6,-1
EndSplineSet
Validated: 33
EndChar

StartChar: l
Encoding: 108 108 52
Width: 669
GlyphClass: 2
Flags: W
LayerCount: 2
Fore
SplineSet
427 431 m 1,0,1
 404 431 404 431 379 433 c 0,2,3
 337 435 337 435 255 444 c 0,4,5
 220 448 220 448 203 450 c 0,6,7
 143 456 143 456 101 456 c 1,8,9
 103 444 103 444 98 432 c 0,10,11
 82 388 82 388 88 258 c 0,12,13
 90 216 90 216 95 164 c 1,14,15
 138 205 138 205 193 250 c 0,16,17
 239 288 239 288 321 350 c 0,18,19
 323 352 323 352 339.5 364.5 c 128,-1,20
 356 377 356 377 360 380 c 0,21,22
 401 411 401 411 427 431 c 1,0,1
43 555 m 0,23,24
 111 559 111 559 212 549 c 0,25,26
 231 547 231 547 266 544 c 0,27,28
 345 535 345 535 384 533 c 0,29,30
 446 529 446 529 492 534 c 0,31,32
 493 534 493 534 495 535 c 0,33,34
 496 535 496 535 501 536 c 2,35,-1
 506 538 l 2,36,37
 507 538 507 538 508 539 c 0,38,39
 518 541 518 541 524 543 c 0,40,41
 530 544 530 544 535 544 c 0,42,43
 540 545 540 545 545 544 c 0,44,45
 550 544 550 544 555 542 c 0,46,47
 566 539 566 539 575 532 c 0,48,49
 589 519 589 519 594 499 c 0,50,51
 597 489 597 489 599 475 c 0,52,53
 600 457 600 457 599 430 c 0,54,55
 598 418 598 418 597 402 c 0,56,57
 596 401 596 401 595.5 392.5 c 128,-1,58
 595 384 595 384 595 382 c 0,59,60
 594 374 594 374 594 372 c 0,61,62
 594 367 594 367 594 354 c 0,63,64
 594 352 594 352 594.5 340 c 128,-1,65
 595 328 595 328 595 325 c 0,66,67
 596 260 596 260 595 216 c 0,68,69
 595 153 595 153 592 113 c 0,70,71
 588 55 588 55 576 33 c 0,72,73
 569 20 569 20 556 12 c 0,74,75
 549 8 549 8 540 5 c 0,76,77
 531 3 531 3 518 2 c 0,78,79
 502 1 502 1 475 3 c 0,80,81
 455 4 455 4 422 8 c 0,82,83
 415 9 415 9 388.5 12 c 128,-1,84
 362 15 362 15 360 15 c 0,85,86
 315 20 315 20 283 23 c 0,87,88
 160 34 160 34 110 22 c 1,89,-1
 108 22 l 2,90,91
 105 21 105 21 102 20 c 128,-1,92
 99 19 99 19 97 19 c 0,93,94
 92 17 92 17 87 16 c 0,95,96
 75 14 75 14 66 13 c 0,97,98
 58 13 58 13 50 14 c 0,99,100
 35 17 35 17 24 26 c 0,101,102
 10 37 10 37 6 53 c 0,103,104
 4 60 4 60 4 67 c 1,105,-1
 3 68 l 2,106,107
 3 70 3 70 2 82 c 128,-1,108
 1 94 1 94 0 98 c 0,109,110
 -2 119 -2 119 -3 136 c 0,111,112
 -9 202 -9 202 -12 253 c 0,113,114
 -19 404 -19 404 5 467 c 0,115,116
 6 470 6 470 8 473 c 0,117,118
 -3 485 -3 485 -4 502 c 0,119,120
 -5 522 -5 522 8.5 538 c 128,-1,121
 22 554 22 554 43 555 c 0,23,24
EndSplineSet
Validated: 33
EndChar

StartChar: m
Encoding: 109 109 53
Width: 544
GlyphClass: 2
Flags: W
LayerCount: 2
Fore
SplineSet
336 160 m 0,0,1
 283 165 283 165 255 203 c 0,2,3
 238 227 238 227 228 272 c 0,4,5
 223 301 223 301 229.5 332.5 c 128,-1,6
 236 364 236 364 254 388 c 0,7,8
 277 421 277 421 312.5 430.5 c 128,-1,9
 348 440 348 440 387 423 c 0,10,11
 408 413 408 413 427.5 392 c 128,-1,12
 447 371 447 371 459 345 c 0,13,14
 474 316 474 316 475 288 c 0,15,16
 476 248 476 248 451 221 c 0,17,18
 408 175 408 175 368 169 c 1,19,20
 354 159 354 159 336 160 c 0,0,1
EndSplineSet
Validated: 33
EndChar

StartChar: n
Encoding: 110 110 54
Width: 710
GlyphClass: 2
Flags: W
LayerCount: 2
Fore
SplineSet
573 500 m 0,0,1
 541 491 541 491 502 472 c 0,2,3
 457 451 457 451 379 402 c 0,4,5
 376 400 376 400 363 392 c 128,-1,6
 350 384 350 384 348 383 c 0,7,8
 330 371 330 371 317 364 c 0,9,10
 282 342 282 342 256 328 c 0,11,12
 253 327 253 327 246 323 c 2,13,-1
 244 322 l 2,14,15
 242 322 242 322 240 321 c 128,-1,16
 238 320 238 320 235.5 318.5 c 128,-1,17
 233 317 233 317 231 317 c 0,18,19
 210 307 210 307 195 299 c 0,20,21
 193 298 193 298 191 297 c 1,22,23
 213 284 213 284 243 271 c 0,24,25
 286 253 286 253 381 221 c 0,26,27
 382 221 382 221 386 219.5 c 128,-1,28
 390 218 390 218 391 218 c 0,29,30
 472 191 472 191 511 175 c 0,31,32
 578 149 578 149 619 122 c 0,33,34
 636 110 636 110 640 89.5 c 128,-1,35
 644 69 644 69 632.5 52 c 128,-1,36
 621 35 621 35 600.5 31 c 128,-1,37
 580 27 580 27 563 38 c 0,38,39
 531 60 531 60 474 82 c 0,40,41
 437 97 437 97 359 123 c 2,42,-1
 356 124 l 2,43,44
 354 125 354 125 352 125.5 c 128,-1,45
 350 126 350 126 349 126 c 0,46,47
 251 159 251 159 204 179 c 0,48,49
 124 213 124 213 82 252 c 1,50,-1
 81 252 l 2,51,52
 79 254 79 254 78 255 c 0,53,54
 75 258 75 258 72 261 c 0,55,56
 62 274 62 274 60 290 c 0,57,58
 58 311 58 311 70 329 c 0,59,60
 76 338 76 338 86 347 c 0,61,62
 98 358 98 358 119 371 c 0,63,64
 132 379 132 379 149 387 c 2,65,-1
 209 417 l 2,66,67
 233 429 233 429 265 449 c 0,68,69
 278 457 278 457 295 468 c 0,70,71
 297 469 297 469 310 477 c 128,-1,72
 323 485 323 485 326 487 c 0,73,74
 409 539 409 539 459 563 c 0,75,76
 506 585 506 585 547 596 c 0,77,78
 566 602 566 602 584.5 592 c 128,-1,79
 603 582 603 582 608.5 562 c 128,-1,80
 614 542 614 542 603.5 524 c 128,-1,81
 593 506 593 506 573 500 c 0,0,1
EndSplineSet
Validated: 33
EndChar

StartChar: o
Encoding: 111 111 55
Width: 706
GlyphClass: 2
Flags: W
LayerCount: 2
Fore
SplineSet
177 479 m 1,0,1
 218 444 218 444 307 371 c 0,2,3
 307 370 307 370 308 369 c 0,4,5
 395 298 395 298 438 261 c 0,6,7
 479 225 479 225 513 193 c 1,8,9
 509 315 509 315 510 329 c 128,-1,10
 511 343 511 343 516 368 c 0,11,12
 517 378 517 378 520 389 c 2,13,-1
 521 394 l 2,14,15
 522 398 522 398 523 403.5 c 128,-1,16
 524 409 524 409 524 411 c 0,17,18
 528 431 528 431 531 445 c 0,19,20
 537 479 537 479 537 500 c 0,21,22
 537 503 537 503 537 505 c 0,23,24
 524 506 524 506 506 505 c 0,25,26
 468 503 468 503 362 493 c 0,27,28
 357 492 357 492 354 492 c 0,29,30
 260 483 260 483 217 480 c 0,31,32
 194 479 194 479 177 479 c 1,0,1
99 616 m 0,33,34
 125 615 125 615 249 619 c 0,35,36
 293 621 293 621 322 622 c 0,37,38
 415 624 415 624 471 622 c 0,39,40
 553 619 553 619 585 604 c 0,41,42
 593 600 593 600 599 594 c 0,43,44
 612 586 612 586 620 574 c 0,45,46
 637 545 637 545 637 500 c 0,47,48
 637 470 637 470 629 428 c 0,49,50
 627 413 627 413 622 391 c 0,51,52
 622 389 622 389 621 383.5 c 128,-1,53
 620 378 620 378 619 374 c 2,54,-1
 618 369 l 2,55,56
 615 357 615 357 614 349 c 0,57,58
 610 331 610 331 610 323 c 0,59,60
 609 314 609 314 613 194 c 0,61,62
 614 193 614 193 614 192 c 0,63,64
 616 124 616 124 617 97 c 0,65,66
 617 76 617 76 617 65 c 0,67,68
 617 58 617 58 617 54 c 0,69,70
 617 51 617 51 617 48 c 0,71,72
 615 32 615 32 612 26.5 c 128,-1,73
 609 21 609 21 596 12 c 0,74,75
 582 2 582 2 561 -3 c 0,76,77
 547 -6 547 -6 528 -6 c 0,78,79
 502 -7 502 -7 463 -3 c 0,80,81
 447 -1 447 -1 425 2 c 0,82,83
 422 2 422 2 407 4.5 c 128,-1,84
 392 7 392 7 390 7 c 0,85,86
 374 9 374 9 369 9 c 0,87,88
 361 10 361 10 305 10 c 0,89,90
 262 9 262 9 238 10 c 0,91,92
 180 10 180 10 147 11 c 0,93,94
 125 12 125 12 112 14 c 0,95,96
 103 15 103 15 97 16 c 0,97,98
 92 17 92 17 87 19 c 0,99,100
 78 22 78 22 70 28 c 0,101,102
 68 30 68 30 64.5 33 c 128,-1,103
 61 36 61 36 60 37 c 128,-1,104
 59 38 59 38 57 39.5 c 128,-1,105
 55 41 55 41 55 43 c 128,-1,106
 55 45 55 45 54 46 c 128,-1,107
 53 47 53 47 53 50.5 c 128,-1,108
 53 54 53 54 53 56.5 c 128,-1,109
 53 59 53 59 52 65 c 2,110,-1
 52 68 l 2,111,112
 52 69 52 69 52.5 71.5 c 128,-1,113
 53 74 53 74 53 78 c 0,114,115
 53 83 53 83 54 96 c 0,116,117
 55 111 55 111 55 113 c 0,118,119
 56 116 56 116 56 118 c 2,120,-1
 56 119 l 2,121,122
 56 150 56 150 51 191 c 0,123,124
 49 216 49 216 41 270 c 0,125,126
 36 303 36 303 34 321 c 0,127,128
 25 391 25 391 25 440 c 0,129,130
 25 508 25 508 41 563 c 0,131,132
 43 571 43 571 48 578 c 0,133,134
 52 595 52 595 66.5 605.5 c 128,-1,135
 81 616 81 616 99 616 c 0,33,34
EndSplineSet
Validated: 33
EndChar

StartChar: four
Encoding: 112 52 56
Width: 572
GlyphClass: 2
Flags: W
LayerCount: 2
Fore
SplineSet
235 334 m 0,0,1
 254 333 254 333 295 335 c 0,2,3
 302 335 302 335 306 335 c 0,4,5
 361 336 361 336 393 333 c 1,6,7
 393 341 393 341 394 351 c 0,8,9
 394 358 394 358 396 388.5 c 128,-1,10
 398 419 398 419 398 423 c 0,11,12
 400 461 400 461 401 482 c 0,13,14
 401 484 401 484 401 485 c 1,15,16
 378 483 378 483 351 484 c 0,17,18
 318 484 318 484 252 488 c 0,19,20
 199 492 199 492 175 493 c 0,21,22
 134 494 134 494 103 491 c 0,23,24
 82 489 82 489 66 502.5 c 128,-1,25
 50 516 50 516 48.5 536.5 c 128,-1,26
 47 557 47 557 60 573 c 128,-1,27
 73 589 73 589 94 591 c 0,28,29
 131 594 131 594 178 593 c 0,30,31
 204 592 204 592 258 588 c 1,32,-1
 259 588 l 1,33,34
 321 584 321 584 352 584 c 0,35,36
 398 583 398 583 433 589 c 0,37,38
 437 590 437 590 441 591 c 0,39,40
 452 592 452 592 463 590 c 0,41,42
 479 585 479 585 490 572 c 0,43,44
 498 563 498 563 500 549 c 0,45,46
 501 545 501 545 502 539 c 0,47,48
 502 533 502 533 502 523 c 0,49,50
 502 507 502 507 501 478 c 0,51,52
 500 456 500 456 498 417 c 0,53,54
 498 413 498 413 496 383 c 128,-1,55
 494 353 494 353 494 345 c 0,56,57
 492 306 492 306 490 277 c 0,58,59
 482 104 482 104 489 54 c 0,60,61
 492 33 492 33 479.5 16.5 c 128,-1,62
 467 0 467 0 446.5 -3 c 128,-1,63
 426 -6 426 -6 409.5 6.5 c 128,-1,64
 393 19 393 19 390 40 c 0,65,66
 382 92 382 92 388 232 c 1,67,68
 361 236 361 236 309 235 c 0,69,70
 305 235 305 235 298 235 c 0,71,72
 253 233 253 233 230 234 c 0,73,74
 210 235 210 235 196 250.5 c 128,-1,75
 182 266 182 266 182.5 286.5 c 128,-1,76
 183 307 183 307 198.5 321 c 128,-1,77
 214 335 214 335 235 334 c 0,0,1
EndSplineSet
Validated: 33
EndChar

StartChar: q
Encoding: 113 113 57
Width: 771
GlyphClass: 2
Flags: W
LayerCount: 2
Fore
SplineSet
282 330 m 1,0,1
 313 330 313 330 345 329 c 0,2,3
 384 328 384 328 422 327 c 1,4,5
 397 364 397 364 349 375 c 0,6,7
 318 383 318 383 300 363 c 0,8,9
 289 351 289 351 282 330 c 1,0,1
280 230 m 1,10,11
 284 213 284 213 291 198 c 0,12,13
 304 171 304 171 324 160 c 1,14,15
 342 168 342 168 360 162 c 0,16,17
 395 150 395 150 416.5 169 c 128,-1,18
 438 188 438 188 444 226 c 1,19,20
 394 228 394 228 342 229 c 0,21,22
 310 230 310 230 280 230 c 1,10,11
34 322 m 0,23,24
 58 329 58 329 153 331 c 0,25,26
 166 331 166 331 179 331 c 1,27,28
 191 391 191 391 226 430 c 0,29,30
 283 494 283 494 372 473 c 0,31,32
 464 451 464 451 511 373 c 0,33,34
 526 350 526 350 534 322 c 1,35,36
 634 317 634 317 663 310 c 0,37,38
 683 306 683 306 694 288.5 c 128,-1,39
 705 271 705 271 700.5 251 c 128,-1,40
 696 231 696 231 678.5 219.5 c 128,-1,41
 661 208 661 208 641 213 c 0,42,43
 622 217 622 217 544 222 c 1,44,45
 535 140 535 140 482 94 c 0,46,47
 427 45 427 45 351 61 c 1,48,49
 334 52 334 52 315 56 c 0,50,51
 240 75 240 75 201 154 c 0,52,53
 184 189 184 189 178 231 c 1,54,55
 166 231 166 231 155 231 c 0,56,57
 114 230 114 230 89 229 c 0,58,59
 77 228 77 228 69 227 c 2,60,-1
 64 227 l 1,61,62
 45 220 45 220 26.5 229.5 c 128,-1,63
 8 239 8 239 1.5 259 c 128,-1,64
 -5 279 -5 279 4.5 297.5 c 128,-1,65
 14 316 14 316 34 322 c 0,23,24
EndSplineSet
Validated: 33
EndChar

StartChar: r
Encoding: 114 114 58
Width: 595
GlyphClass: 2
Flags: W
LayerCount: 2
Fore
SplineSet
121 568 m 0,0,1
 132 548 132 548 164 509 c 0,2,3
 165 508 165 508 166 507 c 0,4,5
 198 469 198 469 213 445 c 0,6,7
 229 419 229 419 252 379 c 1,8,9
 260 386 260 386 269 395 c 0,10,11
 285 412 285 412 315 447 c 1,12,-1
 319 450 l 1,13,14
 356 493 356 493 377 514 c 0,15,16
 413 550 413 550 448 573 c 0,17,18
 465 585 465 585 485.5 581 c 128,-1,19
 506 577 506 577 517.5 559.5 c 128,-1,20
 529 542 529 542 525 522 c 128,-1,21
 521 502 521 502 504 490 c 0,22,23
 477 472 477 472 448 443 c 0,24,25
 429 425 429 425 394 384 c 1,26,-1
 391 381 l 2,27,28
 359 344 359 344 341 326 c 0,29,30
 321 306 321 306 304 291 c 1,31,32
 336 236 336 236 363 197 c 0,33,34
 410 129 410 129 457 82 c 0,35,36
 472 67 472 67 472 46.5 c 128,-1,37
 472 26 472 26 457 11.5 c 128,-1,38
 442 -3 442 -3 421.5 -3 c 128,-1,39
 401 -3 401 -3 386 11 c 0,40,41
 333 65 333 65 281 141 c 0,42,43
 245 192 245 192 194 279 c 0,44,45
 192 284 192 284 185.5 294.5 c 128,-1,46
 179 305 179 305 173.5 315 c 128,-1,47
 168 325 168 325 167 326 c 0,48,49
 143 367 143 367 127 393 c 0,50,51
 117 410 117 410 90 442 c 1,52,-1
 88 445 l 2,53,54
 69 467 69 467 59 480 c 0,55,56
 42 503 42 503 32 523 c 0,57,58
 23 542 23 542 29.5 561.5 c 128,-1,59
 36 581 36 581 54.5 590.5 c 128,-1,60
 73 600 73 600 92.5 593.5 c 128,-1,61
 112 587 112 587 121 568 c 0,0,1
EndSplineSet
Validated: 33
EndChar

StartChar: s
Encoding: 115 115 59
Width: 675
GlyphClass: 2
Flags: W
LayerCount: 2
Fore
SplineSet
394 337 m 0,0,1
 398 348 398 348 405 357 c 0,2,3
 420 374 420 374 442 378 c 0,4,5
 456 380 456 380 468 376 c 0,6,7
 487 370 487 370 498 354 c 0,8,9
 511 333 511 333 509 309.5 c 128,-1,10
 507 286 507 286 493 268 c 0,11,12
 483 256 483 256 469 250 c 0,13,14
 450 243 450 243 431 248 c 0,15,16
 414 253 414 253 402 267 c 0,17,18
 394 276 394 276 389 289 c 0,19,20
 378 314 378 314 394 337 c 0,0,1
363 472 m 0,21,22
 363 457 363 457 360 429 c 0,23,24
 360 422 360 422 356 385 c 1,25,26
 358 335 358 335 357 294 c 0,27,28
 355 240 355 240 350 198 c 1,29,30
 354 148 354 148 367 124 c 0,31,32
 375 110 375 110 384 108 c 0,33,34
 396 106 396 106 414 112 c 1,35,36
 420 119 420 119 421 120 c 0,37,38
 428 128 428 128 434 135 c 0,39,40
 443 144 443 144 451 151 c 0,41,42
 472 171 472 171 492 177 c 0,43,44
 511 184 511 184 529.5 174.5 c 128,-1,45
 548 165 548 165 555 146 c 0,46,47
 561 127 561 127 552.5 109 c 128,-1,48
 544 91 544 91 526 84 c 1,49,-1
 525 83 l 2,50,51
 523 81 523 81 519 78 c 0,52,53
 517 76 517 76 515 74 c 0,54,55
 512 47 512 47 487 34 c 0,56,57
 418 0 418 0 365 10 c 0,58,59
 322 19 322 19 294 54 c 1,60,61
 235 -10 235 -10 143 31 c 0,62,63
 124 40 124 40 106 55 c 0,64,65
 96 64 96 64 81 80 c 1,66,-1
 81 81 l 1,67,68
 66 96 66 96 59 101 c 0,69,70
 43 114 43 114 40.5 134.5 c 128,-1,71
 38 155 38 155 50.5 171.5 c 128,-1,72
 63 188 63 188 83.5 190.5 c 128,-1,73
 104 193 104 193 121 180 c 0,74,75
 134 170 134 170 154 149 c 1,76,-1
 154 148 l 1,77,78
 175 126 175 126 184 122 c 0,79,80
 197 116 197 116 206 116 c 0,81,82
 211 115 211 115 214 117 c 0,83,84
 223 120 223 120 231 138 c 0,85,86
 243 162 243 162 249 202 c 1,87,88
 247 238 247 238 249 284 c 0,89,90
 250 325 250 325 256 387 c 1,91,-1
 256 388 l 2,92,93
 255 408 255 408 254 433 c 0,94,95
 254 435 254 435 253 453.5 c 128,-1,96
 252 472 252 472 252 476 c 0,97,98
 251 493 251 493 251 502 c 1,99,100
 140 507 140 507 68 507 c 0,101,102
 48 507 48 507 33 522 c 128,-1,103
 18 537 18 537 18 557.5 c 128,-1,104
 18 578 18 578 33 592.5 c 128,-1,105
 48 607 48 607 68 607 c 0,106,107
 151 607 151 607 314 599 c 0,108,109
 476 591 476 591 556 591 c 0,110,111
 577 591 577 591 591.5 576.5 c 128,-1,112
 606 562 606 562 606 541 c 128,-1,113
 606 520 606 520 591.5 505.5 c 128,-1,114
 577 491 577 491 556 491 c 0,115,116
 480 491 480 491 358 497 c 1,117,118
 364 485 364 485 363 472 c 0,21,22
EndSplineSet
Validated: 33
EndChar

StartChar: one
Encoding: 116 49 60
Width: 604
GlyphClass: 2
Flags: W
LayerCount: 2
Fore
SplineSet
92 589 m 0,0,1
 105 589 105 589 131 589 c 0,2,3
 184 590 184 590 212 589 c 0,4,5
 272 587 272 587 317 577 c 0,6,7
 375 565 375 565 420 536 c 0,8,9
 489 493 489 493 518.5 408.5 c 128,-1,10
 548 324 548 324 528 237 c 128,-1,11
 508 150 508 150 443 99 c 0,12,13
 405 69 405 69 343 53 c 0,14,15
 308 45 308 45 247 39 c 0,16,17
 243 38 243 38 236 37 c 2,18,-1
 223 35 l 2,19,20
 202 33 202 33 188 32 c 0,21,22
 134 27 134 27 100 44 c 0,23,24
 82 54 82 54 75.5 73.5 c 128,-1,25
 69 93 69 93 78 111.5 c 128,-1,26
 87 130 87 130 106.5 136.5 c 128,-1,27
 126 143 126 143 145 134 c 0,28,29
 154 129 154 129 181 131 c 0,30,31
 191 132 191 132 209 135 c 0,32,33
 220 136 220 136 223 136 c 0,34,35
 231 137 231 137 236 138 c 0,36,37
 291 144 291 144 319 151 c 0,38,39
 360 161 360 161 382 178 c 0,40,41
 419 207 419 207 431 262.5 c 128,-1,42
 443 318 443 318 425 372 c 128,-1,43
 407 426 407 426 367 452 c 0,44,45
 313 486 313 486 209 489 c 0,46,47
 183 490 183 490 132 490 c 0,48,49
 105 489 105 489 92 489 c 0,50,51
 72 489 72 489 57 503.5 c 128,-1,52
 42 518 42 518 42 539 c 128,-1,53
 42 560 42 560 57 574.5 c 128,-1,54
 72 589 72 589 92 589 c 0,0,1
EndSplineSet
Validated: 33
EndChar

StartChar: u
Encoding: 117 117 61
Width: 740
GlyphClass: 2
Flags: W
LayerCount: 2
Fore
SplineSet
372 104 m 1,0,1
 373 71 373 71 373 38 c 0,2,3
 373 18 373 18 358.5 3 c 128,-1,4
 344 -12 344 -12 323.5 -12 c 128,-1,5
 303 -12 303 -12 288 3 c 128,-1,6
 273 18 273 18 273 38 c 0,7,8
 273 75 273 75 271 116 c 1,9,10
 189 125 189 125 149 189 c 0,11,12
 132 217 132 217 125 251 c 1,13,14
 80 248 80 248 51 246 c 0,15,16
 30 245 30 245 14.5 258.5 c 128,-1,17
 -1 272 -1 272 -2.5 292.5 c 128,-1,18
 -4 313 -4 313 10 328.5 c 128,-1,19
 24 344 24 344 44 346 c 0,20,21
 75 348 75 348 131 351 c 1,22,23
 151 422 151 422 204 465 c 0,24,25
 229 484 229 484 257 495 c 1,26,27
 262 553 262 553 274 603 c 0,28,29
 279 624 279 624 296.5 634.5 c 128,-1,30
 314 645 314 645 334 640 c 128,-1,31
 354 635 354 635 365 617.5 c 128,-1,32
 376 600 376 600 371 580 c 0,33,34
 363 544 363 544 358 503 c 1,35,36
 363 502 363 502 368 501 c 0,37,38
 432 488 432 488 470 424 c 0,39,40
 487 398 487 398 496 366 c 1,41,42
 564 364 564 364 626 358 c 0,43,44
 646 356 646 356 659.5 340 c 128,-1,45
 673 324 673 324 671 303.5 c 128,-1,46
 669 283 669 283 652.5 270 c 128,-1,47
 636 257 636 257 616 259 c 0,48,49
 564 264 564 264 506 265 c 1,50,51
 502 219 502 219 482 183 c 0,52,53
 446 117 446 117 375 105 c 1,54,-1
 374 104 l 1,55,-1
 372 104 l 1,0,1
355 364 m 1,56,57
 372 365 372 365 389 365 c 1,58,59
 375 393 375 393 354 401 c 1,60,61
 354 384 354 384 355 364 c 1,56,57
361 264 m 1,62,63
 362 250 362 250 364 227 c 0,64,65
 364 215 364 215 365 205 c 1,66,67
 383 211 383 211 394 231 c 0,68,69
 402 245 402 245 405 266 c 1,70,71
 384 265 384 265 361 264 c 1,62,63
261 260 m 1,72,73
 245 259 245 259 227 258 c 1,74,75
 229 249 229 249 234 243 c 0,76,77
 244 226 244 226 264 219 c 1,78,79
 262 245 262 245 261 260 c 1,72,73
255 359 m 1,80,81
 255 367 255 367 255 375 c 1,82,83
 248 367 248 367 243 359 c 1,84,85
 249 359 249 359 255 359 c 1,80,81
EndSplineSet
Validated: 33
EndChar

StartChar: v
Encoding: 118 118 62
Width: 714
GlyphClass: 2
Flags: W
LayerCount: 2
Fore
SplineSet
509 123 m 1,0,1
 507 127 507 127 506 130 c 0,2,3
 471 209 471 209 442 273 c 0,4,5
 420 319 420 319 400 357 c 0,6,7
 363 430 363 430 335 470 c 0,8,9
 334 473 334 473 332 475 c 1,10,11
 313 443 313 443 293.5 402.5 c 128,-1,12
 274 362 274 362 238 281 c 1,13,-1
 238 280 l 2,14,15
 237 279 237 279 237 278 c 0,16,17
 204 202 204 202 186 165 c 0,18,19
 175 143 175 143 165 123 c 1,20,21
 184 120 184 120 205 120 c 0,22,23
 242 119 242 119 317 124 c 0,24,25
 319 124 319 124 321 124 c 0,26,27
 399 130 399 130 439 129 c 0,28,29
 477 129 477 129 509 123 c 1,0,1
384 249 m 0,30,31
 383 240 383 240 381 233 c 0,32,33
 378 222 378 222 372 213 c 0,34,35
 358 194 358 194 335 192 c 0,36,37
 311 190 311 190 293 206 c 0,38,39
 291 208 291 208 289 211 c 2,40,-1
 288 211 l 1,41,42
 264 226 264 226 263 253 c 0,43,44
 263 264 263 264 267 275 c 0,45,46
 270 281 270 281 274.5 286.5 c 128,-1,47
 279 292 279 292 285 297 c 0,48,49
 295 304 295 304 309 308 c 0,50,51
 317 311 317 311 324 311 c 0,52,53
 331 312 331 312 338 311 c 0,54,55
 351 308 351 308 362 299 c 0,56,57
 368 294 368 294 372 288 c 0,58,59
 381 278 381 278 383 265 c 0,60,61
 385 257 385 257 384 249 c 0,30,31
335 603 m 0,62,63
 359 596 359 596 382 572 c 0,64,65
 399 554 399 554 418 527 c 0,66,67
 449 481 449 481 489 403 c 0,68,69
 509 363 509 363 532 315 c 0,70,71
 563 251 563 251 598 170 c 0,72,73
 609 143 609 143 623 111 c 2,74,-1
 627 102 l 2,75,76
 631 92 631 92 635 82.5 c 128,-1,77
 639 73 639 73 640 71 c 0,78,79
 648 51 648 51 640.5 32 c 128,-1,80
 633 13 633 13 614 5 c 0,81,82
 583 -8 583 -8 559 16 c 1,83,84
 544 11 544 11 528 16 c 0,85,86
 491 28 491 28 437 30 c 0,87,88
 402 30 402 30 328 25 c 0,89,90
 325 24 325 24 324 24 c 0,91,92
 244 18 244 18 202 20 c 0,93,94
 147 22 147 22 103 34 c 1,95,96
 79 24 79 24 57 37 c 0,97,98
 39 48 39 48 34.5 68.5 c 128,-1,99
 30 89 30 89 41 106 c 0,100,101
 68 150 68 150 96 208 c 0,102,103
 113 244 113 244 145 318 c 0,104,105
 146 320 146 320 147 321 c 0,106,107
 183 404 183 404 203 446 c 0,108,109
 238 516 238 516 273 569 c 1,110,111
 279 589 279 589 297 599 c 128,-1,112
 315 609 315 609 335 603 c 0,62,63
EndSplineSet
Validated: 33
EndChar

StartChar: w
Encoding: 119 119 63
Width: 705
GlyphClass: 2
Flags: W
LayerCount: 2
Fore
SplineSet
415 571 m 0,0,1
 470 471 470 471 539 319 c 0,2,3
 625 127 625 127 635 53 c 0,4,5
 638 32 638 32 625.5 15.5 c 128,-1,6
 613 -1 613 -1 593 -4 c 0,7,8
 579 -6 579 -6 567 0 c 1,9,10
 515 3 515 3 452 3 c 0,11,12
 411 2 411 2 329 0 c 0,13,14
 311 -1 311 -1 303 -1 c 0,15,16
 164 -6 164 -6 83 -1 c 1,17,18
 61 -13 61 -13 38 -2 c 0,19,20
 19 7 19 7 12 26 c 128,-1,21
 5 45 5 45 14 64 c 0,22,23
 40 122 40 122 82 189 c 0,24,25
 107 229 107 229 160 305 c 0,26,27
 160 306 160 306 161 307 c 0,28,29
 217 388 217 388 243 429 c 0,30,31
 284 496 284 496 308 553 c 0,32,33
 316 571 316 571 333 579 c 0,34,35
 339 586 339 586 348 590 c 0,36,37
 366 600 366 600 385.5 594.5 c 128,-1,38
 405 589 405 589 415 571 c 0,0,1
EndSplineSet
Validated: 33
EndChar

StartChar: x
Encoding: 120 120 64
Width: 664
GlyphClass: 2
Flags: W
LayerCount: 2
Fore
SplineSet
318 433 m 1,0,1
 285 422 285 422 261 400 c 0,2,3
 216 358 216 358 210 294 c 0,4,5
 204 232 204 232 239 185 c 0,6,7
 271 143 271 143 328 132 c 0,8,9
 329 133 329 133 331 134 c 1,10,11
 330 136 330 136 329 137 c 0,12,13
 321 150 321 150 319 173 c 0,14,15
 318 189 318 189 318 215 c 0,16,17
 318 238 318 238 316 285 c 0,18,19
 316 307 316 307 315 318 c 0,20,21
 314 388 314 388 318 433 c 1,0,1
341 29 m 0,22,23
 224 40 224 40 159 125 c 0,24,25
 101 202 101 202 110 303 c 0,26,27
 120 406 120 406 193 473 c 0,28,29
 275 548 275 548 402 544 c 0,30,31
 501 541 501 541 555 456 c 0,32,33
 600 384 600 384 594 288 c 0,34,35
 588 191 588 191 532 123 c 0,36,37
 473 52 473 52 381 44 c 1,38,39
 364 27 364 27 341 29 c 0,22,23
EndSplineSet
Validated: 33
EndChar

StartChar: y
Encoding: 121 121 65
Width: 709
GlyphClass: 2
Flags: W
LayerCount: 2
Fore
SplineSet
513 498 m 0,0,1
 510 498 510 498 508 497 c 0,2,3
 503 497 503 497 497 496 c 0,4,5
 495 496 495 496 486 495.5 c 128,-1,6
 477 495 477 495 476 494 c 0,7,8
 464 493 464 493 459 493 c 0,9,10
 402 493 402 493 288 501 c 0,11,12
 220 505 220 505 186 507 c 0,13,14
 156 508 156 508 130 508 c 1,15,16
 129 424 129 424 129 288 c 0,17,18
 129 191 129 191 131 128 c 0,19,20
 131 113 131 113 131 100 c 1,21,22
 146 100 146 100 166 100 c 0,23,24
 229 99 229 99 341 99 c 0,25,26
 410 99 410 99 508 99 c 0,27,28
 514 99 514 99 531 99 c 1,29,30
 527 125 527 125 524 167 c 0,31,32
 521 212 521 212 520 307 c 0,33,34
 520 311 520 311 520 320 c 0,35,36
 519 424 519 424 516 464 c 0,37,38
 515 484 515 484 513 498 c 0,0,1
83 607 m 0,39,40
 131 609 131 609 190 607 c 0,41,42
 226 605 226 605 295 601 c 0,43,44
 405 593 405 593 458 593 c 0,45,46
 459 593 459 593 460 593 c 0,47,48
 463 594 463 594 467 594 c 0,49,50
 468 594 468 594 477 595 c 128,-1,51
 486 596 486 596 488 596 c 0,52,53
 494 597 494 597 500 597 c 0,54,55
 520 599 520 599 532 599 c 0,56,57
 542 599 542 599 548 599 c 0,58,59
 554 598 554 598 559 597 c 128,-1,60
 564 596 564 596 569 594 c 0,61,62
 578 590 578 590 585 583 c 0,63,64
 596 572 596 572 602 554 c 0,65,66
 606 544 606 544 609 529 c 0,67,68
 613 506 613 506 616 470 c 0,69,70
 619 428 619 428 620 321 c 0,71,72
 620 312 620 312 620 308 c 0,73,74
 621 216 621 216 624 173 c 0,75,76
 628 114 628 114 634.5 98.5 c 128,-1,77
 641 83 641 83 637 67 c 1,78,79
 640 58 640 58 640 49 c 0,80,81
 640 28 640 28 625.5 13.5 c 128,-1,82
 611 -1 611 -1 590 -1 c 0,83,84
 582 -1 582 -1 558 -1 c 2,85,-1
 548 -1 l 2,86,87
 537 -1 537 -1 525 -1 c 128,-1,88
 513 -1 513 -1 508 -1 c 0,89,90
 411 -1 411 -1 341 -1 c 0,91,92
 229 -1 229 -1 165 0 c 0,93,94
 127 0 127 0 106 1 c 0,95,96
 94 1 94 1 87 2 c 0,97,98
 82 2 82 2 79 3 c 0,99,100
 65 5 65 5 59.5 7.5 c 128,-1,101
 54 10 54 10 45 21 c 0,102,103
 38 30 38 30 36.5 34.5 c 128,-1,104
 35 39 35 39 33 54 c 0,105,106
 33 61 33 61 32 72 c 0,107,108
 31 92 31 92 31 127 c 0,109,110
 29 189 29 189 29 288 c 0,111,112
 28 515 28 515 31 554 c 0,113,114
 32 569 32 569 41 581 c 0,115,116
 54 606 54 606 83 607 c 0,39,40
EndSplineSet
Validated: 33
EndChar

StartChar: z
Encoding: 122 122 66
Width: 649
GlyphClass: 2
Flags: W
LayerCount: 2
Fore
SplineSet
148 104 m 1,0,1
 195 110 195 110 249 112 c 0,2,3
 311 115 311 115 435 114 c 0,4,5
 447 114 447 114 455 114 c 1,6,7
 449 129 449 129 443 144 c 0,8,9
 413 217 413 217 356 325 c 0,10,11
 345 346 345 346 307 417 c 1,12,13
 308 417 308 417 293 446 c 1,14,15
 270 392 270 392 233 305 c 0,16,17
 193 212 193 212 148 104 c 1,0,1
31 84 m 0,18,19
 79 198 79 198 141 344 c 0,20,21
 183 443 183 443 208 500 c 0,22,23
 222 533 222 533 230 551 c 0,24,25
 235 562 235 562 238 567 c 0,26,27
 239 569 239 569 240 571 c 0,28,29
 248 587 248 587 250.5 590 c 128,-1,30
 253 593 253 593 260 595 c 0,31,32
 266 596 266 596 270 597 c 0,33,34
 289 604 289 604 308 596 c 0,35,36
 317 592 317 592 324 585 c 0,37,38
 332 579 332 579 340 568 c 0,39,40
 349 555 349 555 361 532 c 0,41,42
 365 526 365 526 369 518 c 2,43,-1
 396 463 l 2,44,45
 433 393 433 393 445 371 c 0,46,47
 503 259 503 259 535 182 c 0,48,49
 562 119 562 119 577 65 c 0,50,51
 583 45 583 45 573 26.5 c 128,-1,52
 563 8 563 8 543 3 c 0,53,54
 516 -5 516 -5 495 14 c 1,55,56
 475 14 475 14 434 14 c 0,57,58
 313 15 313 15 254 13 c 0,59,60
 152 8 152 8 69 -10 c 0,61,62
 48 -14 48 -14 31 -2.5 c 128,-1,63
 14 9 14 9 9 29 c 0,64,65
 3 61 3 61 30 80 c 0,66,67
 31 82 31 82 31 84 c 0,18,19
EndSplineSet
Validated: 33
EndChar
